<svg width="54" height="54" viewBox="0 0 54 54" fill="none" xmlns="http://www.w3.org/2000/svg">
<g filter="url(#filter0_d)">
<circle cx="30" cy="27" r="23" fill="white"/>
</g>
<path d="M40 23.25H28.75C27.3693 23.25 26.25 24.3693 26.25 25.75V37C26.25 38.3807 27.3693 39.5 28.75 39.5H40C41.3807 39.5 42.5 38.3807 42.5 37V25.75C42.5 24.3693 41.3807 23.25 40 23.25Z" stroke="#6F6F6F" stroke-width="2" stroke-linecap="round" stroke-linejoin="round"/>
<path d="M21.25 30.75H20C19.337 30.75 18.7011 30.4866 18.2322 30.0178C17.7634 29.5489 17.5 28.913 17.5 28.25V17C17.5 16.337 17.7634 15.7011 18.2322 15.2322C18.7011 14.7634 19.337 14.5 20 14.5H31.25C31.913 14.5 32.5489 14.7634 33.0178 15.2322C33.4866 15.7011 33.75 16.337 33.75 17V18.25" stroke="#6F6F6F" stroke-width="2" stroke-linecap="round" stroke-linejoin="round"/>
<defs>
<filter id="filter0_d" x="0" y="0" width="54" height="54" filterUnits="userSpaceOnUse" color-interpolation-filters="sRGB">
<feFlood flood-opacity="0" result="BackgroundImageFix"/>
<feColorMatrix in="SourceAlpha" type="matrix" values="0 0 0 0 0 0 0 0 0 0 0 0 0 0 0 0 0 0 127 0" result="hardAlpha"/>
<feOffset dx="-3"/>
<feGaussianBlur stdDeviation="2"/>
<feColorMatrix type="matrix" values="0 0 0 0 0 0 0 0 0 0 0 0 0 0 0 0 0 0 0.25 0"/>
<feBlend mode="normal" in2="BackgroundImageFix" result="effect1_dropShadow"/>
<feBlend mode="normal" in="SourceGraphic" in2="effect1_dropShadow" result="shape"/>
</filter>
</defs>
</svg>
