<svg width="54" height="54" viewBox="0 0 54 54" fill="none" xmlns="http://www.w3.org/2000/svg">
<g filter="url(#filter0_d)">
<circle cx="30" cy="27" r="23" fill="url(#paint0_linear)"/>
</g>
<circle cx="30" cy="27" r="13.125" fill="url(#paint1_linear)"/>
<path d="M34.8879 31.014L35.4709 27.3095H31.8236V24.9066C31.8236 23.8928 32.3322 22.9041 33.9658 22.9041H35.625V19.7503C35.625 19.7503 34.1199 19.5 32.6815 19.5C29.6764 19.5 27.7141 21.2746 27.7141 24.486V27.3095H24.375V31.014H27.7141V39.9698C28.3844 40.0725 29.0702 40.125 29.7688 40.125C30.4675 40.125 31.1533 40.0725 31.8236 39.9698V31.014H34.8879Z" fill="white"/>
<defs>
<filter id="filter0_d" x="0" y="0" width="54" height="54" filterUnits="userSpaceOnUse" color-interpolation-filters="sRGB">
<feFlood flood-opacity="0" result="BackgroundImageFix"/>
<feColorMatrix in="SourceAlpha" type="matrix" values="0 0 0 0 0 0 0 0 0 0 0 0 0 0 0 0 0 0 127 0" result="hardAlpha"/>
<feOffset dx="-3"/>
<feGaussianBlur stdDeviation="2"/>
<feColorMatrix type="matrix" values="0 0 0 0 0 0 0 0 0 0 0 0 0 0 0 0 0 0 0.25 0"/>
<feBlend mode="normal" in2="BackgroundImageFix" result="effect1_dropShadow"/>
<feBlend mode="normal" in="SourceGraphic" in2="effect1_dropShadow" result="shape"/>
</filter>
<linearGradient id="paint0_linear" x1="30" y1="4" x2="30" y2="50" gradientUnits="userSpaceOnUse">
<stop stop-color="#18ACFE"/>
<stop offset="0.623314" stop-color="#046AE3"/>
</linearGradient>
<linearGradient id="paint1_linear" x1="30" y1="13.875" x2="30" y2="40.0471" gradientUnits="userSpaceOnUse">
<stop stop-color="#18ACFE"/>
<stop offset="1" stop-color="#0163E0"/>
</linearGradient>
</defs>
</svg>
