<svg width="50" height="44" viewBox="0 0 50 44" fill="none" xmlns="http://www.w3.org/2000/svg">
<path d="M22 32C22.5523 32 23 31.5523 23 31C23 30.4477 22.5523 30 22 30C21.4477 30 21 30.4477 21 31C21 31.5523 21.4477 32 22 32Z" stroke="#B92835" stroke-width="2" stroke-linecap="round" stroke-linejoin="round"/>
<path d="M33 32C33.5523 32 34 31.5523 34 31C34 30.4477 33.5523 30 33 30C32.4477 30 32 30.4477 32 31C32 31.5523 32.4477 32 33 32Z" stroke="#B92835" stroke-width="2" stroke-linecap="round" stroke-linejoin="round"/>
<path d="M14 11H18L20.68 24.39C20.7714 24.8504 21.0219 25.264 21.3875 25.5583C21.7532 25.8526 22.2107 26.009 22.68 26H32.4C32.8693 26.009 33.3268 25.8526 33.6925 25.5583C34.0581 25.264 34.3086 24.8504 34.4 24.39L36 16H19" stroke="#B92835" stroke-width="2" stroke-linecap="round" stroke-linejoin="round"/>
<rect x="0.5" y="0.5" width="49" height="43" rx="9.5" stroke="#B92835"/>
</svg>
