<svg width="20" height="21" viewBox="0 0 20 21" fill="none" xmlns="http://www.w3.org/2000/svg">
<g clip-path="url(#clip0)">
<path d="M17.7778 3.27777H2.22222C1.63285 3.27777 1.06762 3.5119 0.650874 3.92864C0.234126 4.34539 0 4.91062 0 5.49999L0 10.5H20V5.49999C20 4.91062 19.7659 4.34539 19.3491 3.92864C18.9324 3.5119 18.3671 3.27777 17.7778 3.27777Z" fill="#DC1F26"/>
<path d="M20 15.5C20 16.0894 19.7659 16.6546 19.3491 17.0714C18.9324 17.4881 18.3671 17.7222 17.7778 17.7222H2.22222C1.63285 17.7222 1.06762 17.4881 0.650874 17.0714C0.234126 16.6546 0 16.0894 0 15.5V10.5H20V15.5Z" fill="#FBFAFA"/>
</g>
<defs>
<clipPath id="clip0">
<rect width="20" height="20" fill="white" transform="translate(0 0.5)"/>
</clipPath>
</defs>
</svg>
