<svg width="44" height="30" viewBox="0 0 44 30" fill="none" xmlns="http://www.w3.org/2000/svg">
<path d="M16 12L22 18L28 12" stroke="#B92835" stroke-width="2" stroke-linecap="round" stroke-linejoin="round"/>
<path d="M15 1H29V-1H15V1ZM29 29H15V31H29V29ZM15 29C7.26801 29 1 22.732 1 15H-1C-1 23.8366 6.16344 31 15 31V29ZM43 15C43 22.732 36.732 29 29 29V31C37.8366 31 45 23.8366 45 15H43ZM29 1C36.732 1 43 7.26801 43 15H45C45 6.16344 37.8366 -1 29 -1V1ZM15 -1C6.16344 -1 -1 6.16344 -1 15H1C1 7.26801 7.26801 1 15 1V-1Z" fill="#B92835"/>
</svg>
