<svg width="48" height="48" viewBox="0 0 48 48" fill="none" xmlns="http://www.w3.org/2000/svg">
<path d="M19 32C19.5523 32 20 31.5523 20 31C20 30.4477 19.5523 30 19 30C18.4477 30 18 30.4477 18 31C18 31.5523 18.4477 32 19 32Z" stroke="#0A0A0A" stroke-width="2" stroke-linecap="round" stroke-linejoin="round"/>
<path d="M30 32C30.5523 32 31 31.5523 31 31C31 30.4477 30.5523 30 30 30C29.4477 30 29 30.4477 29 31C29 31.5523 29.4477 32 30 32Z" stroke="#0A0A0A" stroke-width="2" stroke-linecap="round" stroke-linejoin="round"/>
<path d="M11 11H15L17.68 24.39C17.7714 24.8504 18.0219 25.264 18.3875 25.5583C18.7532 25.8526 19.2107 26.009 19.68 26H29.4C29.8693 26.009 30.3268 25.8526 30.6925 25.5583C31.0581 25.264 31.3086 24.8504 31.4 24.39L33 16H16" stroke="#0A0A0A" stroke-width="2" stroke-linecap="round" stroke-linejoin="round"/>
</svg>
