<svg width="356" height="333" viewBox="0 0 356 333" fill="none" xmlns="http://www.w3.org/2000/svg">
<g filter="url(#filter0_f)">
<ellipse rx="73.7501" ry="37.4806" transform="matrix(0.942696 0.333653 -0.334502 0.942395 183.893 176.072)" fill="#B4B4B4" fill-opacity="0.46"/>
</g>
<ellipse cx="207.216" cy="208.694" rx="4.68359" ry="4.6769" fill="#E9877C"/>
<path d="M207.606 202.272C206.92 202.575 206.371 203.368 205.914 204.505C205.298 206.034 205.913 207.46 206.371 207.915C207.972 207.915 208.927 205.334 209.345 204.505C209.912 203.377 209.046 202.387 207.788 202.286L207.606 202.272Z" fill="#EDEDED"/>
<ellipse cx="234.534" cy="192.329" rx="3.12239" ry="3.11793" fill="#E9877C"/>
<path d="M236.134 186.873C235.448 187.176 235.25 187.782 234.792 188.919C234.177 190.448 234.792 191.874 235.25 192.329C236.851 192.329 237.806 189.748 238.224 188.919C238.622 188.127 237.657 187.377 236.816 187.098L236.134 186.873Z" fill="#EDEDED"/>
<path fill-rule="evenodd" clip-rule="evenodd" d="M132.698 152.575C130.389 153.089 124.077 154.782 124.488 161.558V173.364H127.054V171.311L209.158 203.906C210.35 204.448 212.065 205.008 214.033 205.323C223.721 206.874 231.816 198.669 240.086 193.392C241.691 192.368 243.462 190.952 243.019 189.101C242.656 187.585 241.241 185.771 237.638 184.144L218.908 174.134L216.599 175.931L233.789 185.684L209.158 200.313L148.606 176.957C147.418 176.093 146.093 174.17 145.795 171.255C145.377 167.164 147.66 163.39 149.848 159.908L152.198 156.168L148.606 155.655C145.955 159.248 139.882 166.691 143.218 175.161L127.054 168.744V165.305C127.054 161.618 127.36 157.525 130.505 155.602C131.994 154.691 134.043 153.927 136.804 153.602L132.698 152.575ZM212.493 202.11L236.868 187.224L240.204 190.047L234.328 193.779C227.48 198.128 220.189 204.676 212.493 202.11Z" fill="#E9877C"/>
<ellipse cx="124.505" cy="179.717" rx="4.68359" ry="4.6769" fill="#E9877C"/>
<path d="M124.51 172.702C124.119 173.484 123.782 173.949 123.247 175.196C122.526 176.874 123.246 178.439 123.782 178.938C125.653 178.938 126.87 176.153 127.258 175.196C127.636 174.265 127.334 173.367 127.245 172.702H124.51Z" fill="#EDEDED"/>
<path d="M94.7 58.3772C96.8584 57.8774 99.0679 57.5938 100.735 57.4785L103.833 59.0047C102.503 59.7907 99.1046 60.8297 95.9794 61.6738C92.9888 62.4815 90.2185 64.1451 92.7654 65.9084C95.0669 67.5018 98.3994 68.5789 100.655 70.2371C101.973 71.2065 102.967 72.3584 103.712 73.4062C104.901 75.078 105.537 77.0749 105.937 79.0867L120.308 151.313C120.459 152.073 120.07 152.837 119.367 153.162C118.295 153.656 117.044 153.014 116.822 151.855L102.542 77.3184C101.251 74.2661 97.5502 71.4682 94.5379 70.4508C87.894 68.4872 87.9507 59.9403 94.7 58.3772Z" fill="#E9877C"/>
<path d="M107.296 87.0986L206.432 132.252V185.313L120.104 152.915L107.296 87.0986Z" fill="#9F1C34"/>
<path d="M205.651 132.122L250.926 110.687L242.986 163.882L205.651 185.127V132.122Z" fill="#D55959"/>
<path d="M127.201 53.7842C129.394 53.2461 135.588 52.4163 137.207 52.8468C139.145 53.362 144.097 54.1236 153.174 58.2004C153.962 58.5544 154.56 59.2415 154.722 60.0901C155.106 62.1012 155.49 65.594 155.173 69.7986C155.933 70.4264 157.653 71.4668 158.463 70.6058C158.785 69.0328 159.087 65.4468 158.404 61.351C157.969 58.7365 156.419 56.4502 154.102 55.1636C150.604 53.2218 144.89 50.9266 137.207 49.8869C134.592 49.8869 127.447 49.7645 126.03 51.0561L127.201 53.7842Z" fill="#E9877C"/>
<path d="M107.459 87.4507L158.861 67.5323L250.926 110.687L206.429 132.648L107.459 87.4507Z" fill="#B92835"/>
<path d="M172.866 112.635C185.34 31.2445 283.541 26.4805 242.339 51.8353C208.773 72.4916 146.376 51.6228 164.28 33.1277C175.598 21.4354 185.356 15.5893 208.383 11.6919" stroke="#0A0A0A" stroke-dasharray="6 6"/>
<path d="M158.815 67.4253V110.483L107.296 86.9135L158.815 67.4253Z" fill="#D55959"/>
<rect width="29.0788" height="5.1077" rx="2.55385" transform="matrix(0.971772 -0.235924 0.236562 0.971616 99.7188 56.2148)" fill="#B92835"/>
<path d="M126.249 32.1868C125.875 32.0678 125.561 31.8081 125.374 31.4622C125.187 31.1162 125.141 30.7112 125.246 30.3322L128.926 15.9815C129.146 15.1242 130.008 14.6116 130.823 14.8538L131.957 15.1916C132.772 15.4338 133.21 16.3329 132.923 17.1704L128.108 31.1832C127.987 31.5579 127.726 31.8714 127.38 32.0583C127.034 32.2452 126.629 32.2913 126.249 32.1868Z" fill="#B92835"/>
<path d="M119.149 32.0704C119.023 32.0816 118.896 32.0679 118.775 32.03C118.654 31.9921 118.542 31.9308 118.445 31.8495C118.348 31.7682 118.267 31.6685 118.209 31.5562C118.15 31.4439 118.114 31.3211 118.103 31.1949L117.065 21.6041C117.033 21.3309 117.112 21.0565 117.282 20.8411C117.453 20.6256 117.702 20.4867 117.974 20.4547L118.752 20.3795C118.885 20.3679 119.019 20.384 119.146 20.4268C119.273 20.4697 119.389 20.5384 119.488 20.6286C119.587 20.7187 119.666 20.8284 119.72 20.9507C119.775 21.0731 119.803 21.2053 119.804 21.3392L120.064 31.0053C120.073 31.2656 119.984 31.5197 119.815 31.717C119.645 31.9144 119.407 32.0406 119.149 32.0704Z" fill="#B92835"/>
<path d="M114.29 36.5126C113.657 37.041 112.637 36.8298 111.979 36.0337L100.281 21.8988C99.5826 21.0545 99.5599 19.8832 100.231 19.3231L101.167 18.5419C101.839 17.9815 102.934 18.257 103.577 19.1479L114.338 34.0641C114.944 34.904 114.923 35.9841 114.29 36.5126Z" fill="#B92835"/>
<ellipse rx="4.31355" ry="2.38132" transform="matrix(-0.560239 -0.828331 0.920298 -0.391218 218.065 6.84348)" fill="#9F1C34"/>
<ellipse rx="6.38087" ry="2.8121" transform="matrix(0.994437 -0.105334 0.105633 0.994405 220.881 9.70432)" fill="#851432"/>
<ellipse rx="4.15947" ry="2.44528" transform="matrix(0.36663 -0.930367 0.97067 0.240417 221.258 6.79618)" fill="#B92835"/>
<defs>
<filter id="filter0_f" x="0.235352" y="20.02" width="367.315" height="312.103" filterUnits="userSpaceOnUse" color-interpolation-filters="sRGB">
<feFlood flood-opacity="0" result="BackgroundImageFix"/>
<feBlend mode="normal" in="SourceGraphic" in2="BackgroundImageFix" result="shape"/>
<feGaussianBlur stdDeviation="56.5" result="effect1_foregroundBlur"/>
</filter>
</defs>
</svg>
