<svg width="30" height="30" viewBox="0 0 30 30" fill="none" xmlns="http://www.w3.org/2000/svg">
<mask id="mask0" mask-type="alpha" maskUnits="userSpaceOnUse" x="0" y="0" width="30" height="30">
<circle cx="15" cy="15" r="15" fill="#C4C4C4"/>
</mask>
<g mask="url(#mask0)">
</g>
<g clip-path="url(#clip0)">
<path d="M3.63748 12.0377L3.22498 7.2377C3.22498 7.2377 6.48748 5.8877 7.61248 5.7002C9.41248 5.4002 12.8625 4.9502 15 4.9502C17.1375 4.9502 20.55 5.4002 22.3875 5.7002C23.55 5.8877 26.775 7.2377 26.775 7.2377L26.3625 12.0377L21.825 12.3752C21.75 17.5127 22.5375 23.8127 22.8 25.9127C22.8 25.9127 19.4625 26.0627 15 26.1002C10.5375 26.0627 7.19998 25.9127 7.19998 25.9127C7.46248 23.8127 8.24998 17.5127 8.17498 12.3752L3.63748 12.0377Z" fill="#FF99B6"/>
<path d="M15 7.6499H15.45V26.0999H15V7.6499Z" fill="#FF78A5"/>
<path d="M12.8625 5.1001H17.175V7.7251H12.8625V5.1001Z" fill="#FF78A5"/>
<path d="M11.175 3H18.825V5.475H11.175V3Z" fill="#FF99B6"/>
<path d="M18.825 3L20.2875 5.325L17.5125 9.6375L15 7.725L18.825 3Z" fill="#FFD2DF"/>
<path d="M11.175 3L9.71252 5.325L12.4875 9.6375L15 7.725L11.175 3Z" fill="#FFD2DF"/>
<path d="M13.8375 11.6248C14.376 11.6248 14.8125 11.1883 14.8125 10.6498C14.8125 10.1113 14.376 9.6748 13.8375 9.6748C13.299 9.6748 12.8625 10.1113 12.8625 10.6498C12.8625 11.1883 13.299 11.6248 13.8375 11.6248Z" fill="#FF78A5"/>
<path d="M13.8375 11.3998C14.3553 11.3998 14.775 11.0137 14.775 10.5373C14.775 10.061 14.3553 9.6748 13.8375 9.6748C13.3198 9.6748 12.9 10.061 12.9 10.5373C12.9 11.0137 13.3198 11.3998 13.8375 11.3998Z" fill="#FFF3F7"/>
<path d="M13.8375 14.8123C14.376 14.8123 14.8125 14.3758 14.8125 13.8373C14.8125 13.2988 14.376 12.8623 13.8375 12.8623C13.299 12.8623 12.8625 13.2988 12.8625 13.8373C12.8625 14.3758 13.299 14.8123 13.8375 14.8123Z" fill="#FF78A5"/>
<path d="M13.8375 14.5873C14.3553 14.5873 14.775 14.2012 14.775 13.7248C14.775 13.2485 14.3553 12.8623 13.8375 12.8623C13.3198 12.8623 12.9 13.2485 12.9 13.7248C12.9 14.2012 13.3198 14.5873 13.8375 14.5873Z" fill="#FFF3F7"/>
<path d="M13.8375 17.9998C14.376 17.9998 14.8125 17.5633 14.8125 17.0248C14.8125 16.4863 14.376 16.0498 13.8375 16.0498C13.299 16.0498 12.8625 16.4863 12.8625 17.0248C12.8625 17.5633 13.299 17.9998 13.8375 17.9998Z" fill="#FF78A5"/>
<path d="M13.8375 17.7748C14.3553 17.7748 14.775 17.3886 14.775 16.9123C14.775 16.436 14.3553 16.0498 13.8375 16.0498C13.3198 16.0498 12.9 16.436 12.9 16.9123C12.9 17.3886 13.3198 17.7748 13.8375 17.7748Z" fill="#FFF3F7"/>
<path d="M13.8375 21.1873C14.376 21.1873 14.8125 20.7508 14.8125 20.2123C14.8125 19.6738 14.376 19.2373 13.8375 19.2373C13.299 19.2373 12.8625 19.6738 12.8625 20.2123C12.8625 20.7508 13.299 21.1873 13.8375 21.1873Z" fill="#FF78A5"/>
<path d="M13.8375 20.9623C14.3553 20.9623 14.775 20.5761 14.775 20.0998C14.775 19.6235 14.3553 19.2373 13.8375 19.2373C13.3198 19.2373 12.9 19.6235 12.9 20.0998C12.9 20.5761 13.3198 20.9623 13.8375 20.9623Z" fill="#FFF3F7"/>
<path d="M13.8375 24.3748C14.376 24.3748 14.8125 23.9383 14.8125 23.3998C14.8125 22.8613 14.376 22.4248 13.8375 22.4248C13.299 22.4248 12.8625 22.8613 12.8625 23.3998C12.8625 23.9383 13.299 24.3748 13.8375 24.3748Z" fill="#FF78A5"/>
<path d="M13.8375 24.1498C14.3553 24.1498 14.775 23.7636 14.775 23.2873C14.775 22.811 14.3553 22.4248 13.8375 22.4248C13.3198 22.4248 12.9 22.811 12.9 23.2873C12.9 23.7636 13.3198 24.1498 13.8375 24.1498Z" fill="#FFF3F7"/>
<path d="M27 7.1625L25.7625 6.75L25.3125 12.225L26.625 12.1125L27 7.1625Z" fill="#FFD2DF"/>
<path d="M3 7.1625L4.2375 6.75L4.6875 12.225L3.375 12.1125L3 7.1625Z" fill="#FFD2DF"/>
<path d="M15 25.1626C19.0125 25.0876 22.2 24.5626 22.725 24.2251C22.7625 24.9376 22.7625 25.5376 22.8 26.0251C22.8 26.0251 19.4625 26.9626 15 27.0376C10.5375 26.9626 7.20001 26.0251 7.20001 26.0251C7.23751 25.5751 7.27501 24.9376 7.27501 24.2251C7.80001 24.5251 10.9875 25.0876 15 25.1626Z" fill="#FFD2DF"/>
<path d="M15 25.1626H15.45V27.0001H15V25.1626Z" fill="#FF99B6"/>
</g>
<defs>
<clipPath id="clip0">
<rect width="24" height="24" fill="white" transform="translate(3 3)"/>
</clipPath>
</defs>
</svg>
