<svg width="50" height="44" viewBox="0 0 50 44" fill="none" xmlns="http://www.w3.org/2000/svg">
<path d="M34 25C34 25.5304 33.7893 26.0391 33.4142 26.4142C33.0391 26.7893 32.5304 27 32 27H20L16 31V15C16 14.4696 16.2107 13.9609 16.5858 13.5858C16.9609 13.2107 17.4696 13 18 13H32C32.5304 13 33.0391 13.2107 33.4142 13.5858C33.7893 13.9609 34 14.4696 34 15V25Z" stroke="#B92835" stroke-width="2" stroke-linecap="round" stroke-linejoin="round"/>
<path d="M22 21C22 21.5523 21.5523 22 21 22C20.4477 22 20 21.5523 20 21C20 20.4477 20.4477 20 21 20C21.5523 20 22 20.4477 22 21Z" fill="#B92835"/>
<path d="M26 21C26 21.5523 25.5523 22 25 22C24.4477 22 24 21.5523 24 21C24 20.4477 24.4477 20 25 20C25.5523 20 26 20.4477 26 21Z" fill="#B92835"/>
<path d="M30 21C30 21.5523 29.5523 22 29 22C28.4477 22 28 21.5523 28 21C28 20.4477 28.4477 20 29 20C29.5523 20 30 20.4477 30 21Z" fill="#B92835"/>
<rect x="0.5" y="0.5" width="49" height="43" rx="9.5" stroke="#B92835"/>
</svg>
