<svg width="24" height="25" viewBox="0 0 24 25" fill="none" xmlns="http://www.w3.org/2000/svg">
<path d="M21 15.5C21 16.0304 20.7893 16.5391 20.4142 16.9142C20.0391 17.2893 19.5304 17.5 19 17.5H7L3 21.5V5.5C3 4.96957 3.21071 4.46086 3.58579 4.08579C3.96086 3.71071 4.46957 3.5 5 3.5H19C19.5304 3.5 20.0391 3.71071 20.4142 4.08579C20.7893 4.46086 21 4.96957 21 5.5V15.5Z" fill="#B92835" stroke="#B92835" stroke-width="2" stroke-linecap="round" stroke-linejoin="round"/>
<path d="M9 11.5C9 12.0523 8.55228 12.5 8 12.5C7.44772 12.5 7 12.0523 7 11.5C7 10.9477 7.44772 10.5 8 10.5C8.55228 10.5 9 10.9477 9 11.5Z" fill="white"/>
<path d="M13 11.5C13 12.0523 12.5523 12.5 12 12.5C11.4477 12.5 11 12.0523 11 11.5C11 10.9477 11.4477 10.5 12 10.5C12.5523 10.5 13 10.9477 13 11.5Z" fill="white"/>
<path d="M17 11.5C17 12.0523 16.5523 12.5 16 12.5C15.4477 12.5 15 12.0523 15 11.5C15 10.9477 15.4477 10.5 16 10.5C16.5523 10.5 17 10.9477 17 11.5Z" fill="white"/>
</svg>
