<svg width="25" height="35" viewBox="0 0 25 35" fill="none" xmlns="http://www.w3.org/2000/svg">
<path d="M12.5 15.625H6.875C6.18464 15.625 5.625 16.1846 5.625 16.875V22.5C5.625 23.1904 6.18464 23.75 6.875 23.75H12.5C13.1904 23.75 13.75 23.1904 13.75 22.5V16.875C13.75 16.1846 13.1904 15.625 12.5 15.625Z" stroke="#B92835" stroke-width="1.5" stroke-linecap="round" stroke-linejoin="round"/>
<path d="M3.125 19.375H2.5C2.16848 19.375 1.85054 19.2433 1.61612 19.0089C1.3817 18.7745 1.25 18.4565 1.25 18.125V12.5C1.25 12.1685 1.3817 11.8505 1.61612 11.6161C1.85054 11.3817 2.16848 11.25 2.5 11.25H8.125C8.45652 11.25 8.77446 11.3817 9.00888 11.6161C9.2433 11.8505 9.375 12.1685 9.375 12.5V13.125" stroke="#B92835" stroke-width="1.5" stroke-linecap="round" stroke-linejoin="round"/>
</svg>
