<svg width="69" height="36" viewBox="0 0 69 36" fill="none" xmlns="http://www.w3.org/2000/svg">
<path d="M15.817 22.12C14.937 22.12 14.181 21.944 13.549 21.592C12.925 21.232 12.445 20.728 12.109 20.08C11.773 19.424 11.605 18.652 11.605 17.764C11.605 16.876 11.773 16.108 12.109 15.46C12.445 14.812 12.925 14.312 13.549 13.96C14.181 13.6 14.937 13.42 15.817 13.42C16.257 13.42 16.689 13.476 17.113 13.588C17.537 13.7 17.909 13.86 18.229 14.068C18.437 14.204 18.561 14.368 18.601 14.56C18.641 14.744 18.617 14.916 18.529 15.076C18.441 15.228 18.309 15.332 18.133 15.388C17.957 15.436 17.761 15.388 17.545 15.244C17.297 15.084 17.029 14.968 16.741 14.896C16.453 14.824 16.161 14.788 15.865 14.788C15.009 14.788 14.357 15.048 13.909 15.568C13.461 16.08 13.237 16.812 13.237 17.764C13.237 18.716 13.461 19.452 13.909 19.972C14.357 20.492 15.009 20.752 15.865 20.752C16.169 20.752 16.469 20.716 16.765 20.644C17.061 20.564 17.341 20.444 17.605 20.284C17.821 20.148 18.013 20.104 18.181 20.152C18.349 20.2 18.473 20.3 18.553 20.452C18.641 20.596 18.669 20.756 18.637 20.932C18.605 21.108 18.497 21.264 18.313 21.4C17.993 21.632 17.609 21.812 17.161 21.94C16.721 22.06 16.273 22.12 15.817 22.12ZM22.1474 22.12C21.5394 22.12 21.0114 21.996 20.5634 21.748C20.1154 21.5 19.7674 21.148 19.5194 20.692C19.2714 20.228 19.1474 19.684 19.1474 19.06C19.1474 18.436 19.2714 17.896 19.5194 17.44C19.7674 16.984 20.1154 16.632 20.5634 16.384C21.0114 16.136 21.5394 16.012 22.1474 16.012C22.7554 16.012 23.2834 16.136 23.7314 16.384C24.1794 16.632 24.5274 16.984 24.7754 17.44C25.0234 17.896 25.1474 18.436 25.1474 19.06C25.1474 19.684 25.0234 20.228 24.7754 20.692C24.5274 21.148 24.1794 21.5 23.7314 21.748C23.2834 21.996 22.7554 22.12 22.1474 22.12ZM22.1474 20.98C22.5954 20.98 22.9554 20.82 23.2274 20.5C23.4994 20.172 23.6354 19.692 23.6354 19.06C23.6354 18.42 23.4994 17.944 23.2274 17.632C22.9554 17.312 22.5954 17.152 22.1474 17.152C21.6994 17.152 21.3394 17.312 21.0674 17.632C20.7954 17.944 20.6594 18.42 20.6594 19.06C20.6594 19.692 20.7954 20.172 21.0674 20.5C21.3394 20.82 21.6994 20.98 22.1474 20.98ZM27.1295 24.256C26.6335 24.256 26.3855 24.004 26.3855 23.5V16.792C26.3855 16.288 26.6295 16.036 27.1175 16.036C27.6135 16.036 27.8615 16.288 27.8615 16.792V17.044C28.0295 16.732 28.2815 16.484 28.6175 16.3C28.9535 16.108 29.3375 16.012 29.7695 16.012C30.2815 16.012 30.7295 16.136 31.1135 16.384C31.5055 16.632 31.8095 16.984 32.0255 17.44C32.2415 17.888 32.3495 18.428 32.3495 19.06C32.3495 19.684 32.2415 20.228 32.0255 20.692C31.8095 21.148 31.5095 21.5 31.1255 21.748C30.7415 21.996 30.2895 22.12 29.7695 22.12C29.3535 22.12 28.9775 22.032 28.6415 21.856C28.3135 21.672 28.0615 21.428 27.8855 21.124V23.5C27.8855 24.004 27.6335 24.256 27.1295 24.256ZM29.3495 20.98C29.7975 20.98 30.1575 20.82 30.4295 20.5C30.7015 20.172 30.8375 19.692 30.8375 19.06C30.8375 18.42 30.7015 17.944 30.4295 17.632C30.1575 17.312 29.7975 17.152 29.3495 17.152C28.9015 17.152 28.5415 17.312 28.2695 17.632C27.9975 17.944 27.8615 18.42 27.8615 19.06C27.8615 19.692 27.9975 20.172 28.2695 20.5C28.5415 20.82 28.9015 20.98 29.3495 20.98ZM34.9516 24.256C34.6796 24.256 34.4916 24.156 34.3876 23.956C34.2836 23.756 34.2876 23.528 34.3996 23.272L35.0836 21.76L33.0316 17.032C32.9196 16.768 32.9196 16.536 33.0316 16.336C33.1436 16.136 33.3636 16.036 33.6916 16.036C33.8756 16.036 34.0236 16.08 34.1356 16.168C34.2476 16.248 34.3476 16.404 34.4356 16.636L35.8756 20.236L37.3516 16.624C37.4396 16.4 37.5436 16.248 37.6636 16.168C37.7836 16.08 37.9436 16.036 38.1436 16.036C38.3996 16.036 38.5796 16.136 38.6836 16.336C38.7876 16.536 38.7836 16.764 38.6716 17.02L35.7556 23.68C35.6516 23.904 35.5396 24.056 35.4196 24.136C35.2996 24.216 35.1436 24.256 34.9516 24.256Z" fill="#B92835"/>
<path d="M56.5 16.125H50.875C50.1846 16.125 49.625 16.6846 49.625 17.375V23C49.625 23.6904 50.1846 24.25 50.875 24.25H56.5C57.1904 24.25 57.75 23.6904 57.75 23V17.375C57.75 16.6846 57.1904 16.125 56.5 16.125Z" stroke="#B92835" stroke-width="1.5" stroke-linecap="round" stroke-linejoin="round"/>
<path d="M47.125 19.875H46.5C46.1685 19.875 45.8505 19.7433 45.6161 19.5089C45.3817 19.2745 45.25 18.9565 45.25 18.625V13C45.25 12.6685 45.3817 12.3505 45.6161 12.1161C45.8505 11.8817 46.1685 11.75 46.5 11.75H52.125C52.4565 11.75 52.7745 11.8817 53.0089 12.1161C53.2433 12.3505 53.375 12.6685 53.375 13V13.625" stroke="#B92835" stroke-width="1.5" stroke-linecap="round" stroke-linejoin="round"/>
</svg>
