<svg width="253" height="217" viewBox="0 0 253 217" fill="none" xmlns="http://www.w3.org/2000/svg">
<path d="M171.389 9.0724C171.389 9.0724 136.734 53.0675 81.2872 26.8247C25.8402 0.582 -29.6069 71.5919 18.1392 114.815C65.8853 158.038 19.1622 181.789 51.599 208.279C88.4655 238.387 120.562 177.335 149.826 191.228C214.412 221.891 262.26 209.752 251.479 174.247C232.553 111.923 208.353 107.869 226.836 75.451C245.318 43.0335 204.527 -24.3704 171.389 9.0724Z" fill="#EDEDED"/>
<path d="M194.428 171.67L140.652 118.771L130.003 129.498L183.78 182.398L194.428 171.67Z" fill="#F7B9AA"/>
<path d="M214.971 185.883L173.133 144.727C172.9 144.498 172.524 144.5 172.294 144.732L156.459 160.686C156.228 160.918 156.231 161.292 156.464 161.521L198.302 202.677C198.535 202.906 198.911 202.904 199.141 202.672L214.976 186.718C215.207 186.486 215.204 186.112 214.971 185.883Z" fill="#9F1C34"/>
<path d="M92.9889 145.374C129.986 145.374 159.978 115.517 159.978 78.6871C159.978 41.8568 129.986 12 92.9889 12C55.9919 12 26 41.8568 26 78.6871C26 115.517 55.9919 145.374 92.9889 145.374Z" fill="#B92835"/>
<path d="M92.9889 134.493C123.949 134.493 149.047 109.508 149.047 78.6876C149.047 47.8669 123.949 22.8818 92.9889 22.8818C62.0287 22.8818 36.9305 47.8669 36.9305 78.6876C36.9305 109.508 62.0287 134.493 92.9889 134.493Z" fill="#FBDFD4"/>
<path d="M206.241 18.4012C190.528 13.3308 173.547 21.9063 168.433 37.6131C163.34 53.2555 171.954 70.1602 187.732 75.251C203.51 80.3418 220.447 71.6824 225.541 56.0391C230.635 40.3959 221.955 23.4713 206.241 18.4012ZM201.5 32.9634C203.259 33.531 204.809 34.6057 205.953 36.0514C207.097 37.4971 207.785 39.2485 207.928 41.0836C208.071 42.9187 207.663 44.7547 206.757 46.3588C205.85 47.9629 204.485 49.2628 202.835 50.0937C201.185 50.9246 199.325 51.2489 197.49 51.0257C195.654 50.8024 193.927 50.0416 192.527 48.8396C191.127 47.6377 190.116 46.0489 189.624 44.2746C189.133 42.5004 189.181 40.6207 189.764 38.8739C191.337 34.0411 196.645 31.397 201.5 32.9634ZM189.637 69.4007C184.416 67.7248 179.943 64.2943 176.984 59.6967C182.522 56.5644 188.312 55.692 193.55 57.3822C198.788 59.0724 203.047 63.1168 205.602 68.9303C200.496 70.9258 194.852 71.0921 189.637 69.4007Z" fill="#B92835"/>
<path d="M75.4549 160.944C72.7256 162.331 70.4707 164.492 68.9753 167.155C67.48 169.818 66.8113 172.862 67.054 175.903C67.2966 178.944 68.4396 181.845 70.3385 184.239C72.2373 186.633 74.8067 188.413 77.7218 189.354C80.6368 190.295 83.7665 190.353 86.7152 189.523C89.6639 188.693 92.299 187.011 94.2874 184.69C96.2758 182.369 97.5282 179.513 97.8862 176.483C98.2441 173.454 97.6916 170.386 96.2984 167.669C94.427 164.029 91.1813 161.277 87.2737 160.016C83.3661 158.755 79.1156 159.089 75.4549 160.944ZM79.0636 167.982C79.9137 167.55 80.8735 167.379 81.8213 167.491C82.7691 167.603 83.6622 167.992 84.3872 168.61C85.1123 169.228 85.6367 170.046 85.894 170.961C86.1512 171.876 86.1296 172.846 85.832 173.749C85.5344 174.652 84.9742 175.446 84.2224 176.032C83.4706 176.617 82.5611 176.967 81.6092 177.037C80.6574 177.107 79.7061 176.894 78.8761 176.425C78.046 175.956 77.3746 175.252 76.947 174.403C76.3802 173.27 76.2846 171.961 76.6808 170.759C77.077 169.557 77.9332 168.559 79.0636 167.981V167.982ZM88.0929 185.592C85.5731 186.877 82.6828 187.25 79.9171 186.647C80.7897 183.492 82.5832 181.07 85.1153 179.783C87.6474 178.497 90.6843 178.426 93.7481 179.619C92.6159 182.203 90.6167 184.314 88.0929 185.591V185.592Z" fill="#B92835"/>
</svg>
