<svg width="253" height="225" viewBox="0 0 253 225" fill="none" xmlns="http://www.w3.org/2000/svg">
<path d="M171.389 9.0724C171.389 9.0724 136.734 53.0675 81.2872 26.8247C25.8402 0.582 -29.6069 71.5919 18.1392 114.815C65.8853 158.038 19.1622 181.789 51.599 208.279C88.4655 238.387 120.562 177.335 149.826 191.228C214.412 221.891 262.26 209.752 251.479 174.247C232.553 111.923 208.353 107.869 226.836 75.451C245.318 43.0335 204.527 -24.3704 171.389 9.0724Z" fill="#EDEDED"/>
<path d="M153.595 123.48L150.537 141.124L135.974 225L109.74 219.735L126.561 122.844L127.36 118.227L153.595 123.48Z" fill="#D55959"/>
<path d="M218.203 81.2829L209.157 133.41C209.131 133.563 209.077 133.709 208.998 133.839C208.919 133.969 208.817 134.082 208.697 134.17C208.578 134.257 208.444 134.319 208.302 134.351C208.161 134.383 208.015 134.385 207.873 134.356L80.7843 108.879L95.7427 22.6738L192.249 42.0209C209.74 45.5266 221.358 63.1013 218.203 81.2829Z" fill="#E9877C"/>
<path d="M122.887 63.7902L113.912 115.513L47.2028 102.14L56.1778 50.4169C59.4823 31.3733 77.095 18.9287 95.516 22.6215C113.937 26.3143 126.192 44.7462 122.887 63.7902Z" fill="#D55959"/>
<path d="M153.943 87.9709C149.028 86.9854 145.784 81.85 146.71 76.5171C147.636 71.1842 152.383 67.6496 157.299 68.6358C158.866 68.9522 160.327 69.709 161.533 70.8294C162.74 71.9497 163.649 73.3936 164.168 75.0141L226.265 87.4628L224.587 97.1307L162.491 84.682C161.463 85.9927 160.131 86.9875 158.63 87.5652C157.128 88.1429 155.511 88.2829 153.943 87.9709Z" fill="#B92835"/>
<path d="M120.674 64.7405L111.93 115.134L49.0871 102.536L57.8321 52.1421C61.0516 33.5881 77.7299 21.3665 95.0832 24.8455C112.437 28.3244 123.894 46.1863 120.674 64.7405Z" fill="#B92835"/>
<path d="M155.704 83.0867C158.231 83.0867 160.279 80.8851 160.279 78.1693C160.279 75.4535 158.231 73.252 155.704 73.252C153.178 73.252 151.129 75.4535 151.129 78.1693C151.129 80.8851 153.178 83.0867 155.704 83.0867Z" fill="white"/>
<path d="M226.982 87.4275L221.497 119.039C221.473 119.175 221.401 119.295 221.294 119.374C221.188 119.452 221.057 119.482 220.93 119.456L206.511 116.566C206.486 116.561 206.464 116.545 206.45 116.523C206.435 116.5 206.43 116.472 206.435 116.446L211.991 84.4222C211.996 84.3953 212.011 84.3716 212.031 84.3561C212.052 84.3406 212.078 84.3348 212.103 84.3398L226.906 87.3073C226.931 87.3123 226.953 87.3278 226.967 87.3503C226.982 87.3729 226.987 87.4006 226.982 87.4275Z" fill="#9F1C34"/>
<path d="M69.8833 84.4528C70.4904 89.2539 75.3919 94.9604 75.3919 94.9604C67.9232 95.5294 63.8784 90.9895 62.138 88.2308C59.9862 88.8992 57.7746 89.321 55.5402 89.4894C40.2072 90.6575 27.0078 79.8978 26.0545 65.4446C25.1013 50.9914 36.7569 38.3377 52.09 37.1698C67.423 36.0018 80.6215 46.761 81.5746 61.2144C82.1946 70.6157 77.475 79.257 69.8833 84.4528Z" fill="white"/>
<path d="M113.977 115.544C113.282 117.433 100.585 173.71 59.4949 165.472C14.4373 157.273 47.0285 102.123 47.0285 102.123L113.977 115.544Z" fill="#E9877C"/>
<path d="M53.8141 68.2892C55.9196 68.2892 57.6264 66.4545 57.6264 64.1914C57.6264 61.9283 55.9196 60.0938 53.8141 60.0938C51.7086 60.0938 50.0018 61.9283 50.0018 64.1914C50.0018 66.4545 51.7086 68.2892 53.8141 68.2892Z" fill="#9F1C34"/>
<path d="M36.7471 66.5007C38.8653 66.5007 40.5824 64.655 40.5824 62.3783C40.5824 60.1015 38.8653 58.2559 36.7471 58.2559C34.629 58.2559 32.9118 60.1015 32.9118 62.3783C32.9118 64.655 34.629 66.5007 36.7471 66.5007Z" fill="#9F1C34"/>
<path d="M70.7179 70.0329C72.836 70.0329 74.5532 68.1872 74.5532 65.9105C74.5532 63.6337 72.836 61.7881 70.7179 61.7881C68.5997 61.7881 66.8826 63.6337 66.8826 65.9105C66.8826 68.1872 68.5997 70.0329 70.7179 70.0329Z" fill="#9F1C34"/>
<path d="M153.595 123.48L150.537 141.124L126.561 122.844L127.361 118.227L153.595 123.48Z" fill="#B92835"/>
</svg>
