<svg width="30" height="30" viewBox="0 0 30 30" fill="none" xmlns="http://www.w3.org/2000/svg">
<mask id="mask0" mask-type="alpha" maskUnits="userSpaceOnUse" x="0" y="0" width="30" height="30">
<circle cx="15" cy="15" r="15" fill="#C4C4C4"/>
</mask>
<g mask="url(#mask0)">
</g>
<path d="M17.7037 10.0665C17.6838 10.0105 17.6654 9.95397 17.6486 9.89697C17.6434 9.89885 17.6377 9.8996 17.6321 9.90185C17.6595 9.96335 17.6884 10.0237 17.7082 10.0826C17.7067 10.0777 17.706 10.0725 17.7037 10.0665Z" fill="#EFB086"/>
<path d="M8.05124 10.2469C8.08161 10.7782 8.21549 11.283 8.51849 11.7315C8.66811 11.9535 8.84924 12.1237 9.04236 12.2749C8.12024 13.7861 4.94886 19.3391 5.24286 23.8766C5.24286 23.8766 14.7675 30.7725 23.6891 24.0064C23.6891 24.0064 29.6404 17.397 22.1569 14.4184C22.1569 14.4184 20.1142 15.027 18.3881 16.2907C19.599 17.1997 20.3914 18.6874 20.3914 20.3685C20.3914 20.3932 20.3884 20.4165 20.3872 20.4412C20.1379 20.4506 19.8862 20.4427 19.6335 20.4187C19.6335 20.4019 19.6357 20.3857 19.6357 20.3681C19.6357 18.0229 17.8417 16.1134 15.6371 16.1134C13.5285 16.1134 11.5009 19.1134 11.3531 21.3191C11.3002 21.3495 11.2369 21.3855 11.1919 21.4121C11.1001 21.3851 11.009 21.3563 10.9185 21.3255C10.9185 21.3255 10.4074 16.7805 12.1432 13.9211C12.7612 14.0617 13.374 13.992 13.9552 13.7857C15.1811 13.3459 16.2337 12.6064 17.1727 11.7225C17.7139 11.2144 17.8946 10.707 17.7274 10.1426C17.7214 10.1227 17.7172 10.1032 17.7094 10.0826C17.6895 10.0234 17.6606 9.96298 17.6332 9.90185C17.5697 9.76148 17.4942 9.62685 17.4075 9.49948C16.8997 8.75885 16.3189 8.07073 15.7609 7.36535C15.6694 7.24873 15.5422 7.15423 15.42 7.06573C15.0319 6.78523 14.6801 6.82235 14.3494 7.16923C13.9927 7.54385 13.9264 8.04148 14.1712 8.58748C14.4217 9.14098 14.8129 9.58948 15.27 9.9821C15.4849 10.1685 15.7117 10.341 15.9851 10.5607C15.498 10.5416 15.2261 10.2641 14.9205 10.0414C14.8279 9.97498 14.5684 9.76985 14.4716 9.60898C14.3617 9.37835 14.2451 9.15523 14.13 8.93135C12.9772 8.78285 11.8009 9.17998 10.9485 10.0931C10.8334 10.2172 10.6541 10.0264 10.7689 9.9026C11.6344 8.97785 12.8164 8.55373 13.989 8.6516C13.9264 8.52898 13.8637 8.40748 13.8022 8.28185C13.7716 8.22352 13.7222 8.17727 13.662 8.1506C13.2322 7.99685 13.0444 7.6631 12.975 7.24123C12.9529 7.10998 12.9424 6.97573 12.9202 6.80435C12.6244 7.24423 12.3202 7.61735 11.7821 7.6061C11.2159 7.5941 10.9736 7.17898 10.797 6.69635C10.068 7.6841 9.40986 7.64848 8.76749 6.59473C8.70899 6.76648 8.65386 6.92623 8.59761 7.08823C8.56986 7.17035 8.54174 7.25623 8.51286 7.33723C8.18024 8.27885 7.99836 9.2441 8.05311 10.2465" fill="#EFB086"/>
<path d="M12.4125 7.07634C12.4417 7.04109 12.5201 6.96422 12.5748 6.87422C13.0811 6.02709 13.3068 5.08097 13.506 4.13297C13.5888 3.74484 13.413 3.39984 13.0526 3.18084C12.3903 2.78109 11.514 3.15422 11.3171 3.97022C11.1592 4.62572 11.0722 5.30034 11.0047 5.97159C10.9762 6.25209 11.0321 6.56372 11.1258 6.83372C11.3242 7.41009 11.9253 7.53234 12.4125 7.07634Z" fill="#EFB086"/>
<path d="M13.2551 7.36114C13.3069 7.62101 13.458 7.82914 13.7445 7.89701C13.9845 6.93026 14.4019 6.56989 15.2235 6.64789C15.4477 6.10939 15.6941 5.58401 15.8854 5.04064C16.1344 4.33639 15.7526 3.68726 15.0686 3.58376C14.5496 3.50576 14.0062 3.78289 13.8187 4.33339C13.5686 5.07289 13.3837 5.83714 13.2109 6.59839C13.1554 6.83914 13.2049 7.11364 13.2551 7.36301" fill="#EFB086"/>
<path d="M9.16197 6.78753C9.35322 7.1419 9.78522 7.26715 10.125 7.05453C10.4853 6.83028 10.6807 6.4804 10.7415 6.06865C10.8345 5.4544 10.8892 4.83303 10.9946 4.22365C11.0358 3.98028 10.9586 3.82653 10.7902 3.69078C10.4328 3.40578 9.91047 3.45753 9.48672 3.78978C9.3686 3.9964 9.21035 4.1914 9.14435 4.41265C8.95385 5.05803 8.89047 5.72215 9.01722 6.39078C9.0431 6.52765 9.09522 6.6649 9.16197 6.78753Z" fill="#EFB086"/>
<path d="M16.8787 8.25002C17.2294 7.7794 17.6122 7.3099 17.9415 6.80815C18.171 6.45827 18.1864 6.04765 18.0274 5.6509C17.7142 4.85965 16.8094 4.66202 16.2746 5.31152C15.927 5.7364 15.6907 6.25277 15.4237 6.69265C15.9285 7.23152 16.3736 7.70965 16.8787 8.25002Z" fill="#EFB086"/>
</svg>
