<svg width="64" height="24" viewBox="0 0 64 24" fill="none" xmlns="http://www.w3.org/2000/svg">
<path d="M11.3824 17V7.13H17.6544V8.306H12.8384V11.456H17.3604V12.632H12.8384V17H11.3824ZM21.6886 17.126C20.9979 17.126 20.4006 16.9813 19.8966 16.692C19.3926 16.4027 19.0006 15.9967 18.7206 15.474C18.4499 14.942 18.3146 14.312 18.3146 13.584C18.3146 12.856 18.4499 12.2307 18.7206 11.708C19.0006 11.176 19.3926 10.7653 19.8966 10.476C20.4006 10.1867 20.9979 10.042 21.6886 10.042C22.3606 10.042 22.9486 10.1867 23.4526 10.476C23.9566 10.7653 24.3486 11.176 24.6286 11.708C24.9086 12.2307 25.0486 12.856 25.0486 13.584C25.0486 14.312 24.9086 14.942 24.6286 15.474C24.3486 15.9967 23.9566 16.4027 23.4526 16.692C22.9486 16.9813 22.3606 17.126 21.6886 17.126ZM21.6886 16.034C22.2672 16.034 22.7339 15.824 23.0886 15.404C23.4432 14.984 23.6206 14.3773 23.6206 13.584C23.6206 12.7907 23.4432 12.1887 23.0886 11.778C22.7339 11.358 22.2672 11.148 21.6886 11.148C21.1006 11.148 20.6292 11.358 20.2746 11.778C19.9199 12.1887 19.7426 12.7907 19.7426 13.584C19.7426 14.3773 19.9199 14.984 20.2746 15.404C20.6292 15.824 21.1006 16.034 21.6886 16.034ZM28.8626 17.126C28.1159 17.126 27.5559 16.916 27.1826 16.496C26.8186 16.076 26.6366 15.46 26.6366 14.648V7.13H28.0506V14.564C28.0506 15.488 28.4286 15.95 29.1846 15.95C29.2966 15.95 29.3992 15.9453 29.4926 15.936C29.5952 15.9267 29.6979 15.908 29.8006 15.88L29.7726 17.014C29.4552 17.0887 29.1519 17.126 28.8626 17.126ZM33.1419 17.126C32.3952 17.126 31.8352 16.916 31.4619 16.496C31.0979 16.076 30.9159 15.46 30.9159 14.648V7.13H32.3299V14.564C32.3299 15.488 32.7079 15.95 33.4639 15.95C33.5759 15.95 33.6785 15.9453 33.7719 15.936C33.8745 15.9267 33.9772 15.908 34.0799 15.88L34.0519 17.014C33.7345 17.0887 33.4312 17.126 33.1419 17.126ZM38.0948 17.126C37.4041 17.126 36.8068 16.9813 36.3028 16.692C35.7988 16.4027 35.4068 15.9967 35.1268 15.474C34.8561 14.942 34.7208 14.312 34.7208 13.584C34.7208 12.856 34.8561 12.2307 35.1268 11.708C35.4068 11.176 35.7988 10.7653 36.3028 10.476C36.8068 10.1867 37.4041 10.042 38.0948 10.042C38.7668 10.042 39.3548 10.1867 39.8588 10.476C40.3628 10.7653 40.7548 11.176 41.0348 11.708C41.3148 12.2307 41.4548 12.856 41.4548 13.584C41.4548 14.312 41.3148 14.942 41.0348 15.474C40.7548 15.9967 40.3628 16.4027 39.8588 16.692C39.3548 16.9813 38.7668 17.126 38.0948 17.126ZM38.0948 16.034C38.6735 16.034 39.1401 15.824 39.4948 15.404C39.8495 14.984 40.0268 14.3773 40.0268 13.584C40.0268 12.7907 39.8495 12.1887 39.4948 11.778C39.1401 11.358 38.6735 11.148 38.0948 11.148C37.5068 11.148 37.0355 11.358 36.6808 11.778C36.3261 12.1887 36.1488 12.7907 36.1488 13.584C36.1488 14.3773 36.3261 14.984 36.6808 15.404C37.0355 15.824 37.5068 16.034 38.0948 16.034ZM44.7678 17L42.1638 10.168H43.6198L45.4538 15.348L47.3438 10.168H48.4358L50.2978 15.376L52.1598 10.168H53.5458L50.9418 17H49.6538L47.8478 12.114L46.0558 17H44.7678Z" fill="#6F6F6F"/>
<path d="M12 1H52V-1H12V1ZM52 23H12V25H52V23ZM12 23C5.92487 23 1 18.0751 1 12H-1C-1 19.1797 4.8203 25 12 25V23ZM63 12C63 18.0751 58.0751 23 52 23V25C59.1797 25 65 19.1797 65 12H63ZM52 1C58.0751 1 63 5.92487 63 12H65C65 4.8203 59.1797 -1 52 -1V1ZM12 -1C4.8203 -1 -1 4.8203 -1 12H1C1 5.92487 5.92487 1 12 1V-1Z" fill="#6F6F6F"/>
</svg>
