<svg width="30" height="30" viewBox="0 0 30 30" fill="none" xmlns="http://www.w3.org/2000/svg">
<mask id="mask0" mask-type="alpha" maskUnits="userSpaceOnUse" x="0" y="0" width="30" height="30">
<circle cx="15" cy="15" r="15" fill="#C4C4C4"/>
</mask>
<g mask="url(#mask0)">
</g>
<path d="M15.1346 17.355C15.1346 17.355 16.743 3.74625 18.6649 3C18.9768 3.0004 19.2758 3.12445 19.4964 3.34497C19.717 3.56548 19.8411 3.86447 19.8416 4.17638V25.7861C19.8413 26.0981 19.7173 26.3972 19.4966 26.6178C19.276 26.8383 18.9769 26.9623 18.6649 26.9625C18.5104 26.9626 18.3575 26.9322 18.2148 26.873C18.0721 26.8139 17.9424 26.7273 17.8332 26.618C17.724 26.5088 17.6375 26.379 17.5784 26.2363C17.5194 26.0936 17.4891 25.9406 17.4893 25.7861V18.4466C16.4685 18.3206 15.213 18.0206 15.1346 17.3539" fill="#A7A8AC"/>
<path d="M15.9225 16.9951C15.9225 16.9951 17.2616 4.58635 18.8617 3.90723C19.4029 3.90723 19.8412 4.38835 19.8412 4.97973V24.6819C19.8412 25.2736 19.4029 25.754 18.8617 25.754C18.321 25.754 17.8822 25.2736 17.8822 24.6819V17.9907C17.0325 17.8756 15.9885 17.6022 15.9225 16.9951Z" fill="#D1D2D3"/>
<path d="M14.3325 3.01454C13.8904 3.01454 13.533 3.74054 13.533 4.02779V6.73191C13.5041 6.73191 13.4752 6.71579 13.4467 6.71579H13.0226V4.02741C13.0226 3.74016 12.6637 3.01416 12.2209 3.01416C11.7772 3.01416 11.4184 3.74016 11.4184 4.02741V6.71541H11.0621C11.0329 6.71541 11.0062 6.72779 10.9774 6.73079V4.02741C10.9774 3.74016 10.6185 3.01416 10.1764 3.01416C9.73199 3.01416 9.37537 3.74054 9.37537 4.02741V9.85491C9.37537 11.497 10.4197 11.8979 11.0621 11.8979H11.2316V25.7144C11.2316 26.3969 11.6906 26.9478 12.2554 26.9478C12.8194 26.9478 13.2761 26.3969 13.2761 25.7144V11.8983H13.4471C14.0891 11.8983 15.135 11.8983 15.135 9.85529V4.02741C15.135 3.74054 14.7761 3.01454 14.3325 3.01454Z" fill="#A7A8AC"/>
<path d="M11.9426 11.2835C10.8863 10.3438 9.60038 10.9805 10.0286 3.04102C9.65513 3.17527 9.375 3.77152 9.375 4.02577V9.85326C9.375 11.4954 10.4194 11.8963 11.0617 11.8963H11.2313V25.7128C11.2313 26.261 11.5312 26.7095 11.9426 26.8711V11.2835Z" fill="#D1D2D3"/>
</svg>
