<svg width="320" height="3" viewBox="0 0 320 3" fill="none" xmlns="http://www.w3.org/2000/svg">
<path d="M24.6154 0H3.48718L0 3H20.9231L24.6154 0Z" fill="#B92835"/>
<path d="M49.2306 0H28.1024L24.6152 3H45.5382L49.2306 0Z" fill="#0170BF"/>
<path d="M73.8462 0H52.718L49.2308 3H70.1539L73.8462 0Z" fill="#B92835"/>
<path d="M98.4614 0H77.3332L73.846 3H94.7691L98.4614 0Z" fill="#0170BF"/>
<path d="M123.077 0H101.949L98.4616 3H119.385L123.077 0Z" fill="#B92835"/>
<path d="M147.692 0H126.564L123.077 3H144L147.692 0Z" fill="#0170BF"/>
<path d="M172.308 0H151.18L147.692 3H168.615L172.308 0Z" fill="#B92835"/>
<path d="M196.923 0H175.795L172.308 3H193.231L196.923 0Z" fill="#0170BF"/>
<path d="M221.539 0H200.41L196.923 3H217.846L221.539 0Z" fill="#B92835"/>
<path d="M246.154 0H225.026L221.538 3H242.461L246.154 0Z" fill="#0170BF"/>
<path d="M270.769 0H249.641L246.154 3H267.077L270.769 0Z" fill="#B92835"/>
<path d="M295.385 0H274.256L270.769 3H291.692L295.385 0Z" fill="#0170BF"/>
<path d="M320 0H298.872L295.385 3H316.308L320 0Z" fill="#B92835"/>
</svg>
