<svg width="18" height="19" viewBox="0 0 18 19" fill="none" xmlns="http://www.w3.org/2000/svg">
<path d="M16.8758 9.6749C16.8758 9.0274 16.8222 8.5549 16.7062 8.06491H9.16153V10.9874H13.5901C13.5008 11.7137 13.0187 12.8074 11.9472 13.5424L11.9322 13.6402L14.3177 15.4512L14.4829 15.4674C16.0008 14.0936 16.8758 12.0724 16.8758 9.6749Z" fill="#4285F4"/>
<path d="M9.16099 17.375C11.3306 17.375 13.152 16.675 14.4824 15.4675L11.9467 13.5424C11.2681 14.0062 10.3574 14.3299 9.16099 14.3299C7.03601 14.3299 5.23246 12.9562 4.58954 11.0574L4.4953 11.0653L2.01486 12.9465L1.98242 13.0349C3.30383 15.6074 6.01811 17.375 9.16099 17.375Z" fill="#34A853"/>
<path d="M4.59001 11.0575C4.42037 10.5675 4.32219 10.0424 4.32219 9.49997C4.32219 8.95744 4.42037 8.43246 4.58109 7.94247L4.57659 7.83811L2.06506 5.92664L1.98288 5.96494C1.43827 7.03245 1.12576 8.23123 1.12576 9.49997C1.12576 10.7687 1.43827 11.9674 1.98288 13.0349L4.59001 11.0575Z" fill="#FBBC05"/>
<path d="M9.16103 4.66998C10.6699 4.66998 11.6878 5.30873 12.2682 5.84251L14.536 3.6725C13.1432 2.40375 11.3306 1.625 9.16103 1.625C6.01814 1.625 3.30384 3.39249 1.98242 5.96496L4.58063 7.94249C5.23248 6.04375 7.03604 4.66998 9.16103 4.66998Z" fill="#EB4335"/>
</svg>
