<svg width="40" height="45" viewBox="0 0 40 45" fill="none" xmlns="http://www.w3.org/2000/svg">
<path d="M11 9.5L20 2.5L29 9.5V20.5C29 21.0304 28.7893 21.5391 28.4142 21.9142C28.0391 22.2893 27.5304 22.5 27 22.5H13C12.4696 22.5 11.9609 22.2893 11.5858 21.9142C11.2107 21.5391 11 21.0304 11 20.5V9.5Z" fill="#B82935" stroke="#B82935" stroke-width="1.5" stroke-linecap="round" stroke-linejoin="round"/>
<path d="M17 22.5V12.5H23V22.5H17Z" fill="white" stroke="#B82935" stroke-width="1.5" stroke-linecap="round" stroke-linejoin="round"/>
<path d="M2.00054 40.5V30.63H3.45654V34.886H8.98654V30.63H10.4285V40.5H8.98654V36.104H3.45654V40.5H2.00054ZM15.547 40.626C14.8563 40.626 14.259 40.4813 13.755 40.192C13.251 39.9027 12.859 39.4967 12.579 38.974C12.3083 38.442 12.173 37.812 12.173 37.084C12.173 36.356 12.3083 35.7307 12.579 35.208C12.859 34.676 13.251 34.2653 13.755 33.976C14.259 33.6867 14.8563 33.542 15.547 33.542C16.219 33.542 16.807 33.6867 17.311 33.976C17.815 34.2653 18.207 34.676 18.487 35.208C18.767 35.7307 18.907 36.356 18.907 37.084C18.907 37.812 18.767 38.442 18.487 38.974C18.207 39.4967 17.815 39.9027 17.311 40.192C16.807 40.4813 16.219 40.626 15.547 40.626ZM15.547 39.534C16.1256 39.534 16.5923 39.324 16.947 38.904C17.3016 38.484 17.479 37.8773 17.479 37.084C17.479 36.2907 17.3016 35.6887 16.947 35.278C16.5923 34.858 16.1256 34.648 15.547 34.648C14.959 34.648 14.4876 34.858 14.133 35.278C13.7783 35.6887 13.601 36.2907 13.601 37.084C13.601 37.8773 13.7783 38.484 14.133 38.904C14.4876 39.324 14.959 39.534 15.547 39.534ZM20.523 40.5V33.668H21.895V34.774C22.1003 34.382 22.385 34.0787 22.749 33.864C23.113 33.6493 23.5376 33.542 24.023 33.542C25.0683 33.542 25.745 33.9993 26.053 34.914C26.2676 34.4847 26.5756 34.1487 26.977 33.906C27.3783 33.6633 27.8356 33.542 28.349 33.542C29.8796 33.542 30.645 34.4567 30.645 36.286V40.5H29.231V36.356C29.231 35.7773 29.1283 35.3527 28.923 35.082C28.727 34.8113 28.4003 34.676 27.943 34.676C27.4296 34.676 27.0236 34.858 26.725 35.222C26.4263 35.5767 26.277 36.062 26.277 36.678V40.5H24.863V36.356C24.863 35.7773 24.765 35.3527 24.569 35.082C24.373 34.8113 24.0463 34.676 23.589 34.676C23.0756 34.676 22.6696 34.858 22.371 35.222C22.0816 35.5767 21.937 36.062 21.937 36.678V40.5H20.523ZM35.8279 40.626C34.7079 40.626 33.8259 40.3133 33.1819 39.688C32.5379 39.0533 32.2159 38.19 32.2159 37.098C32.2159 36.398 32.3559 35.782 32.6359 35.25C32.9253 34.7087 33.3219 34.2887 33.8259 33.99C34.3299 33.6913 34.9086 33.542 35.5619 33.542C36.5046 33.542 37.2466 33.8453 37.7879 34.452C38.3293 35.0493 38.5999 35.8753 38.5999 36.93V37.406H33.5879C33.6906 38.8247 34.4419 39.534 35.8419 39.534C36.2339 39.534 36.6166 39.4733 36.9899 39.352C37.3726 39.2307 37.7319 39.03 38.0679 38.75L38.4879 39.73C38.1799 40.01 37.7833 40.2293 37.2979 40.388C36.8126 40.5467 36.3226 40.626 35.8279 40.626ZM35.6179 34.536C35.0299 34.536 34.5633 34.718 34.2179 35.082C33.8726 35.446 33.6626 35.9313 33.5879 36.538H37.4099C37.3819 35.9033 37.2139 35.4133 36.9059 35.068C36.5979 34.7133 36.1686 34.536 35.6179 34.536Z" fill="#B82935"/>
</svg>
