<svg width="56" height="24" viewBox="0 0 56 24" fill="none" xmlns="http://www.w3.org/2000/svg">
<path d="M11.7938 16.06C11.6418 16.06 11.5218 16.016 11.4338 15.928C11.3458 15.832 11.3018 15.708 11.3018 15.556V8.02C11.3018 7.876 11.3458 7.76 11.4338 7.672C11.5298 7.584 11.6538 7.54 11.8058 7.54H16.1738C16.3178 7.54 16.4298 7.576 16.5098 7.648C16.5898 7.72 16.6298 7.824 16.6298 7.96C16.6298 8.088 16.5898 8.188 16.5098 8.26C16.4298 8.332 16.3178 8.368 16.1738 8.368H12.2738V11.284H15.9338C16.0778 11.284 16.1898 11.32 16.2698 11.392C16.3498 11.464 16.3898 11.568 16.3898 11.704C16.3898 11.832 16.3498 11.932 16.2698 12.004C16.1898 12.076 16.0778 12.112 15.9338 12.112H12.2738V15.556C12.2738 15.708 12.2298 15.832 12.1418 15.928C12.0618 16.016 11.9458 16.06 11.7938 16.06ZM20.1443 16.084C19.5923 16.084 19.1043 15.96 18.6803 15.712C18.2643 15.464 17.9403 15.112 17.7083 14.656C17.4843 14.192 17.3723 13.656 17.3723 13.048C17.3723 12.44 17.4843 11.908 17.7083 11.452C17.9403 10.988 18.2643 10.632 18.6803 10.384C19.1043 10.136 19.5923 10.012 20.1443 10.012C20.6963 10.012 21.1843 10.136 21.6083 10.384C22.0323 10.632 22.3563 10.988 22.5803 11.452C22.8123 11.908 22.9283 12.44 22.9283 13.048C22.9283 13.656 22.8123 14.192 22.5803 14.656C22.3563 15.112 22.0323 15.464 21.6083 15.712C21.1843 15.96 20.6963 16.084 20.1443 16.084ZM20.1443 15.28C20.7203 15.28 21.1603 15.092 21.4643 14.716C21.7763 14.332 21.9323 13.776 21.9323 13.048C21.9323 12.336 21.7763 11.788 21.4643 11.404C21.1523 11.012 20.7123 10.816 20.1443 10.816C19.5763 10.816 19.1363 11.012 18.8243 11.404C18.5123 11.788 18.3563 12.336 18.3563 13.048C18.3563 13.768 18.5083 14.32 18.8123 14.704C19.1243 15.088 19.5683 15.28 20.1443 15.28ZM24.8686 16.06C24.7246 16.06 24.6046 16.02 24.5086 15.94C24.4206 15.852 24.3766 15.732 24.3766 15.58V7.96C24.3766 7.808 24.4206 7.692 24.5086 7.612C24.6046 7.524 24.7246 7.48 24.8686 7.48C25.0046 7.48 25.1166 7.524 25.2046 7.612C25.3006 7.692 25.3486 7.808 25.3486 7.96V15.58C25.3486 15.732 25.3006 15.852 25.2046 15.94C25.1166 16.02 25.0046 16.06 24.8686 16.06ZM27.6576 16.06C27.5136 16.06 27.3936 16.02 27.2976 15.94C27.2096 15.852 27.1656 15.732 27.1656 15.58V7.96C27.1656 7.808 27.2096 7.692 27.2976 7.612C27.3936 7.524 27.5136 7.48 27.6576 7.48C27.7936 7.48 27.9056 7.524 27.9936 7.612C28.0896 7.692 28.1376 7.808 28.1376 7.96V15.58C28.1376 15.732 28.0896 15.852 27.9936 15.94C27.9056 16.02 27.7936 16.06 27.6576 16.06ZM32.3787 16.084C31.8267 16.084 31.3387 15.96 30.9147 15.712C30.4987 15.464 30.1747 15.112 29.9427 14.656C29.7187 14.192 29.6067 13.656 29.6067 13.048C29.6067 12.44 29.7187 11.908 29.9427 11.452C30.1747 10.988 30.4987 10.632 30.9147 10.384C31.3387 10.136 31.8267 10.012 32.3787 10.012C32.9307 10.012 33.4187 10.136 33.8427 10.384C34.2667 10.632 34.5907 10.988 34.8147 11.452C35.0467 11.908 35.1627 12.44 35.1627 13.048C35.1627 13.656 35.0467 14.192 34.8147 14.656C34.5907 15.112 34.2667 15.464 33.8427 15.712C33.4187 15.96 32.9307 16.084 32.3787 16.084ZM32.3787 15.28C32.9547 15.28 33.3947 15.092 33.6987 14.716C34.0107 14.332 34.1667 13.776 34.1667 13.048C34.1667 12.336 34.0107 11.788 33.6987 11.404C33.3867 11.012 32.9467 10.816 32.3787 10.816C31.8107 10.816 31.3707 11.012 31.0587 11.404C30.7467 11.788 30.5907 12.336 30.5907 13.048C30.5907 13.768 30.7427 14.32 31.0467 14.704C31.3587 15.088 31.8027 15.28 32.3787 15.28ZM44.5326 10.348C44.6126 10.156 44.7446 10.06 44.9286 10.06C45.0486 10.06 45.1566 10.1 45.2526 10.18C45.3486 10.26 45.3966 10.36 45.3966 10.48C45.3966 10.536 45.3846 10.596 45.3606 10.66L43.3686 15.7C43.3206 15.804 43.2486 15.888 43.1526 15.952C43.0646 16.008 42.9646 16.036 42.8526 16.036C42.7486 16.036 42.6486 16.008 42.5526 15.952C42.4646 15.888 42.3966 15.804 42.3486 15.7L40.6926 11.488L39.0486 15.7C39.0086 15.804 38.9406 15.888 38.8446 15.952C38.7486 16.008 38.6446 16.036 38.5326 16.036C38.4286 16.036 38.3286 16.008 38.2326 15.952C38.1366 15.888 38.0646 15.804 38.0166 15.7L36.0246 10.672C36.0006 10.608 35.9886 10.552 35.9886 10.504C35.9886 10.376 36.0406 10.268 36.1446 10.18C36.2566 10.092 36.3766 10.048 36.5046 10.048C36.6966 10.048 36.8326 10.144 36.9126 10.336L38.5566 14.764L40.2486 10.372C40.2966 10.268 40.3606 10.188 40.4406 10.132C40.5286 10.076 40.6206 10.048 40.7166 10.048C40.8206 10.048 40.9126 10.076 40.9926 10.132C41.0806 10.188 41.1446 10.268 41.1846 10.372L42.8766 14.752L44.5326 10.348Z" fill="#6F6F6F"/>
<path d="M12 1H44V-1H12V1ZM44 23H12V25H44V23ZM12 23C5.92487 23 1 18.0751 1 12H-1C-1 19.1797 4.8203 25 12 25V23ZM55 12C55 18.0751 50.0751 23 44 23V25C51.1797 25 57 19.1797 57 12H55ZM44 1C50.0751 1 55 5.92487 55 12H57C57 4.8203 51.1797 -1 44 -1V1ZM12 -1C4.8203 -1 -1 4.8203 -1 12H1C1 5.92487 5.92487 1 12 1V-1Z" fill="#6F6F6F"/>
</svg>
