<svg width="54" height="54" viewBox="0 0 54 54" fill="none" xmlns="http://www.w3.org/2000/svg">
<g filter="url(#filter0_d)">
<circle cx="30" cy="27" r="23" fill="url(#paint0_radial)"/>
</g>
<rect x="16.875" y="13.875" width="26.25" height="26.25" rx="6" fill="url(#paint1_radial)"/>
<rect x="16.875" y="13.875" width="26.25" height="26.25" rx="6" fill="url(#paint2_radial)"/>
<rect x="16.875" y="13.875" width="26.25" height="26.25" rx="6" fill="url(#paint3_radial)"/>
<path d="M36.5625 21.8438C36.5625 22.6204 35.9329 23.25 35.1562 23.25C34.3796 23.25 33.75 22.6204 33.75 21.8438C33.75 21.0671 34.3796 20.4375 35.1562 20.4375C35.9329 20.4375 36.5625 21.0671 36.5625 21.8438Z" fill="white"/>
<path fill-rule="evenodd" clip-rule="evenodd" d="M30 31.6875C32.5888 31.6875 34.6875 29.5888 34.6875 27C34.6875 24.4112 32.5888 22.3125 30 22.3125C27.4112 22.3125 25.3125 24.4112 25.3125 27C25.3125 29.5888 27.4112 31.6875 30 31.6875ZM30 29.8125C31.5533 29.8125 32.8125 28.5533 32.8125 27C32.8125 25.4467 31.5533 24.1875 30 24.1875C28.4467 24.1875 27.1875 25.4467 27.1875 27C27.1875 28.5533 28.4467 29.8125 30 29.8125Z" fill="white"/>
<path fill-rule="evenodd" clip-rule="evenodd" d="M20.625 26.625C20.625 23.4747 20.625 21.8996 21.2381 20.6963C21.7774 19.6379 22.6379 18.7774 23.6963 18.2381C24.8996 17.625 26.4747 17.625 29.625 17.625H30.375C33.5253 17.625 35.1004 17.625 36.3037 18.2381C37.3621 18.7774 38.2226 19.6379 38.7619 20.6963C39.375 21.8996 39.375 23.4747 39.375 26.625V27.375C39.375 30.5253 39.375 32.1004 38.7619 33.3037C38.2226 34.3621 37.3621 35.2226 36.3037 35.7619C35.1004 36.375 33.5253 36.375 30.375 36.375H29.625C26.4747 36.375 24.8996 36.375 23.6963 35.7619C22.6379 35.2226 21.7774 34.3621 21.2381 33.3037C20.625 32.1004 20.625 30.5253 20.625 27.375V26.625ZM29.625 19.5H30.375C31.9811 19.5 33.0729 19.5015 33.9168 19.5704C34.7388 19.6376 35.1592 19.7593 35.4525 19.9087C36.1581 20.2683 36.7317 20.8419 37.0913 21.5475C37.2407 21.8408 37.3624 22.2612 37.4296 23.0832C37.4985 23.9271 37.5 25.0189 37.5 26.625V27.375C37.5 28.9811 37.4985 30.0729 37.4296 30.9168C37.3624 31.7388 37.2407 32.1592 37.0913 32.4525C36.7317 33.1581 36.1581 33.7317 35.4525 34.0913C35.1592 34.2407 34.7388 34.3624 33.9168 34.4296C33.0729 34.4985 31.9811 34.5 30.375 34.5H29.625C28.0189 34.5 26.9271 34.4985 26.0832 34.4296C25.2612 34.3624 24.8408 34.2407 24.5475 34.0913C23.8419 33.7317 23.2683 33.1581 22.9087 32.4525C22.7593 32.1592 22.6376 31.7388 22.5704 30.9168C22.5015 30.0729 22.5 28.9811 22.5 27.375V26.625C22.5 25.0189 22.5015 23.9271 22.5704 23.0832C22.6376 22.2612 22.7593 21.8408 22.9087 21.5475C23.2683 20.8419 23.8419 20.2683 24.5475 19.9087C24.8408 19.7593 25.2612 19.6376 26.0832 19.5704C26.9271 19.5015 28.0189 19.5 29.625 19.5Z" fill="white"/>
<defs>
<filter id="filter0_d" x="0" y="0" width="54" height="54" filterUnits="userSpaceOnUse" color-interpolation-filters="sRGB">
<feFlood flood-opacity="0" result="BackgroundImageFix"/>
<feColorMatrix in="SourceAlpha" type="matrix" values="0 0 0 0 0 0 0 0 0 0 0 0 0 0 0 0 0 0 127 0" result="hardAlpha"/>
<feOffset dx="-3"/>
<feGaussianBlur stdDeviation="2"/>
<feColorMatrix type="matrix" values="0 0 0 0 0 0 0 0 0 0 0 0 0 0 0 0 0 0 0.25 0"/>
<feBlend mode="normal" in2="BackgroundImageFix" result="effect1_dropShadow"/>
<feBlend mode="normal" in="SourceGraphic" in2="effect1_dropShadow" result="shape"/>
</filter>
<radialGradient id="paint0_radial" cx="0" cy="0" r="1" gradientUnits="userSpaceOnUse" gradientTransform="translate(48 4) rotate(126.784) scale(66.8001)">
<stop stop-color="#B13589"/>
<stop offset="0.44864" stop-color="#D63D6E"/>
<stop offset="0.677311" stop-color="#FFB565"/>
</radialGradient>
<radialGradient id="paint1_radial" cx="0" cy="0" r="1" gradientUnits="userSpaceOnUse" gradientTransform="translate(26.25 33.5625) rotate(-55.3758) scale(23.9246)">
<stop stop-color="#B13589"/>
<stop offset="0.79309" stop-color="#C62F94"/>
<stop offset="1" stop-color="#8A3AC8"/>
</radialGradient>
<radialGradient id="paint2_radial" cx="0" cy="0" r="1" gradientUnits="userSpaceOnUse" gradientTransform="translate(25.3125 41.0625) rotate(-65.1363) scale(21.1821)">
<stop stop-color="#E0E8B7"/>
<stop offset="0.444662" stop-color="#FB8A2E"/>
<stop offset="0.71474" stop-color="#E2425C"/>
<stop offset="1" stop-color="#E2425C" stop-opacity="0"/>
</radialGradient>
<radialGradient id="paint3_radial" cx="0" cy="0" r="1" gradientUnits="userSpaceOnUse" gradientTransform="translate(15.4688 14.8125) rotate(-8.1301) scale(36.4602 7.79846)">
<stop offset="0.156701" stop-color="#406ADC"/>
<stop offset="0.467799" stop-color="#6A45BE"/>
<stop offset="1" stop-color="#6A45BE" stop-opacity="0"/>
</radialGradient>
</defs>
</svg>
