<svg width="15" height="15" viewBox="0 0 15 15" fill="none" xmlns="http://www.w3.org/2000/svg">
<path d="M11.9347 3.14223C13.9158 5.29751 14.2586 8.89755 12.5058 11.2422C11.6989 12.3217 10.5646 13.1114 9.2721 13.4935C7.97964 13.8757 6.59829 13.8298 5.33404 13.3627C4.0698 12.8956 2.99041 12.0324 2.25685 10.9017C1.52329 9.7711 1.17487 8.43362 1.26355 7.08877C1.35223 5.74393 1.87325 4.46378 2.74892 3.43925C3.6246 2.41471 4.80799 1.70069 6.12262 1.40367C7.43725 1.10665 8.81267 1.24254 10.0438 1.79108" fill="#C20001"/>
<path d="M11.9347 3.14223C13.9158 5.29751 14.2586 8.89755 12.5058 11.2422C11.6989 12.3217 10.5646 13.1114 9.2721 13.4935C7.97964 13.8757 6.59829 13.8298 5.33404 13.3627C4.0698 12.8956 2.99041 12.0324 2.25685 10.9017C1.52329 9.7711 1.17487 8.43362 1.26355 7.08877C1.35223 5.74393 1.87325 4.46378 2.74892 3.43925C3.6246 2.41471 4.80799 1.70069 6.12262 1.40367C7.43725 1.10665 8.81267 1.24254 10.0438 1.79108C10.6391 2.05033 11.3139 2.46676 11.9347 3.14223Z" fill="#C20001"/>
<path d="M10 5L5 10" stroke="white" stroke-width="1.5" stroke-linecap="round" stroke-linejoin="round"/>
<path d="M5 5L10 10" stroke="white" stroke-width="1.5" stroke-linecap="round" stroke-linejoin="round"/>
</svg>
