<svg width="30" height="30" viewBox="0 0 30 30" fill="none" xmlns="http://www.w3.org/2000/svg">
<mask id="mask0" mask-type="alpha" maskUnits="userSpaceOnUse" x="0" y="0" width="30" height="30">
<circle cx="15" cy="15" r="15" fill="#C4C4C4"/>
</mask>
<g mask="url(#mask0)">
</g>
<g clip-path="url(#clip0)">
<path d="M14.6194 3.82184C14.6194 3.82184 16.8067 2.13246 17.4952 3.59796C17.4952 3.59796 18.9146 4.84146 19.1584 8.57234L19.3207 16.5415L16.6054 17.2746L11.0122 17.1478L10.4044 16.4785C10.4044 16.4785 10.4029 8.92221 10.4044 8.76396C10.4074 8.32109 10.2022 8.03009 10.9305 7.16946C10.9305 7.16946 13.2877 4.53696 14.6194 3.82184Z" fill="#D32027"/>
<path d="M11.6168 7.85352H13.2293V17.4565H11.6168V7.85352Z" fill="#F16C6C"/>
<path d="M10.6673 7.6539C10.6673 7.6539 10.2424 8.58577 11.0213 8.47477C11.0213 8.47477 12.8513 8.28427 14.6719 7.35765C14.8013 7.29127 14.9318 7.2219 15.0608 7.14765C16.287 6.51202 17.0839 5.48602 17.2819 4.31865C17.325 4.08802 17.343 3.85815 17.3183 3.65752C17.2714 3.25552 17.0629 2.9664 16.5435 3.00315C14.9854 3.1149 16.4543 3.00015 16.4543 3.00015C16.4543 3.00015 13.4824 4.04715 10.6673 7.6539Z" fill="#A81E22"/>
<path d="M20.4375 25.7701C20.4375 26.486 19.656 27.0665 18.6907 27.0665H11.1232C10.1587 27.0665 9.3765 26.486 9.3765 25.7701V16.3839C9.3765 15.6691 10.1587 15.0879 11.1232 15.0879H18.6907C19.656 15.0879 20.4375 15.6688 20.4375 16.3839V25.7701Z" fill="#D0D2D3"/>
<path d="M15.48 25.7701V16.3839C15.48 15.6691 16.263 15.0879 17.2282 15.0879H11.1199C10.1554 15.0879 9.37311 15.668 9.37311 16.3839V25.7701C9.37311 26.486 10.1554 27.0665 11.1199 27.0665H17.2282C16.263 27.0665 15.48 26.486 15.48 25.7701Z" fill="#BBBBBC"/>
<path d="M10.8116 27.045C10.9121 27.0573 11.016 27.0656 11.1217 27.0656H12.4237V15.0854H11.1217C11.016 15.0854 10.9117 15.0926 10.8116 15.1061V27.045Z" fill="#E0E0E0"/>
</g>
<defs>
<clipPath id="clip0">
<rect width="24" height="24" fill="white" transform="translate(3 3)"/>
</clipPath>
</defs>
</svg>
