<svg width="48" height="48" viewBox="0 0 48 48" fill="none" xmlns="http://www.w3.org/2000/svg">
<path d="M30.84 14.6099C30.3292 14.0989 29.7228 13.6935 29.0554 13.417C28.3879 13.1404 27.6725 12.998 26.95 12.998C26.2275 12.998 25.5121 13.1404 24.8446 13.417C24.1772 13.6935 23.5708 14.0989 23.06 14.6099L22 15.6699L20.94 14.6099C19.9083 13.5782 18.509 12.9986 17.05 12.9986C15.591 12.9986 14.1917 13.5782 13.16 14.6099C12.1283 15.6416 11.5487 17.0408 11.5487 18.4999C11.5487 19.9589 12.1283 21.3582 13.16 22.3899L14.22 23.4499L22 31.2299L29.78 23.4499L30.84 22.3899C31.351 21.8791 31.7563 21.2727 32.0329 20.6052C32.3095 19.9378 32.4518 19.2224 32.4518 18.4999C32.4518 17.7774 32.3095 17.062 32.0329 16.3945C31.7563 15.7271 31.351 15.1206 30.84 14.6099V14.6099Z" stroke="#0A0A0A" stroke-width="2" stroke-linecap="round" stroke-linejoin="round"/>
</svg>
