<svg width="49" height="49" viewBox="0 0 49 49" fill="none" xmlns="http://www.w3.org/2000/svg">
<g filter="url(#filter0_d)">
<circle cx="26.5" cy="24.5" r="20.5" fill="white"/>
</g>
<path d="M31 17H33C33.5304 17 34.0391 17.2107 34.4142 17.5858C34.7893 17.9609 35 18.4696 35 19V33C35 33.5304 34.7893 34.0391 34.4142 34.4142C34.0391 34.7893 33.5304 35 33 35H21C20.4696 35 19.9609 34.7893 19.5858 34.4142C19.2107 34.0391 19 33.5304 19 33V19C19 18.4696 19.2107 17.9609 19.5858 17.5858C19.9609 17.2107 20.4696 17 21 17H23" stroke="#B92835" stroke-width="2" stroke-linecap="round" stroke-linejoin="round"/>
<path d="M23 26.6959L25.5254 29L31 24" stroke="#B92835" stroke-width="2" stroke-linecap="round" stroke-linejoin="round"/>
<path d="M30 15H24C23.4477 15 23 15.4477 23 16V18C23 18.5523 23.4477 19 24 19H30C30.5523 19 31 18.5523 31 18V16C31 15.4477 30.5523 15 30 15Z" stroke="#B92835" stroke-width="2" stroke-linecap="round" stroke-linejoin="round"/>
<defs>
<filter id="filter0_d" x="0" y="0" width="49" height="49" filterUnits="userSpaceOnUse" color-interpolation-filters="sRGB">
<feFlood flood-opacity="0" result="BackgroundImageFix"/>
<feColorMatrix in="SourceAlpha" type="matrix" values="0 0 0 0 0 0 0 0 0 0 0 0 0 0 0 0 0 0 127 0" result="hardAlpha"/>
<feOffset dx="-2"/>
<feGaussianBlur stdDeviation="2"/>
<feColorMatrix type="matrix" values="0 0 0 0 0 0 0 0 0 0 0 0 0 0 0 0 0 0 0.25 0"/>
<feBlend mode="normal" in2="BackgroundImageFix" result="effect1_dropShadow"/>
<feBlend mode="normal" in="SourceGraphic" in2="effect1_dropShadow" result="shape"/>
</filter>
</defs>
</svg>
