<svg width="209" height="166" viewBox="0 0 209 166" fill="none" xmlns="http://www.w3.org/2000/svg">
<path d="M17.8693 38.9884C17.7417 38.9654 17.6113 38.9672 17.4855 38.9987C12.8817 40.1524 5.87585 46.6503 13.3325 63.9838C15.0351 67.6446 19.3412 75.2798 25.3516 77.2835C25.607 74.4741 26.6122 69.6027 33.7629 73.4338L105.524 122.216C107.142 123.749 108.334 128.601 105.014 131.922C105.695 132.092 108.027 132.177 108.844 131.155C109.356 131.518 110.096 131.984 111.016 132.492C118.357 136.544 126.434 136.496 134.692 135.044C138.986 134.289 143.693 132.343 147.459 130.146L171.398 116.18C176.127 113.421 180.522 109.432 179.989 103.984C179.856 102.629 179.571 101.126 179.074 99.4851C179.499 101.784 178.869 106.79 172.945 108.424L132.595 126.303C126.976 126.813 122.124 127.324 114.207 120.684L30.4429 62.4514C28.6553 60.4081 26.6122 57.8541 32.486 53.2568C32.9935 49.9572 28.2049 40.8565 17.8693 38.9884Z" fill="#B92835"/>
<path d="M132.595 125.536V131.921C134.468 131.921 141.175 130.747 142.81 130.134C144.444 129.521 137.362 126.473 134.893 124.515L132.595 125.536Z" fill="#9F1C34"/>
<path d="M166.279 107.743C167.925 107.036 169.824 107.264 171.256 108.341L200.928 130.646C204.04 132.985 203.403 137.827 199.791 139.281L170.015 151.267C168.396 151.919 166.555 151.679 165.157 150.635L136.042 128.895C132.957 126.592 133.523 121.813 137.059 120.294L166.279 107.743Z" fill="#58062A"/>
<path d="M140.512 114.043L181.117 146.734L175.754 149.033L136.426 117.107L140.512 114.043Z" fill="#F7B9AA"/>
<path d="M75.1342 19.2876C77.7731 21.3308 83.3574 26.6943 84.5833 31.8024C87.4776 30.6106 94.9006 29.4527 101.438 34.3565C124.082 52.1497 171.157 89.6772 178.307 97.4416C184.316 106.884 165.781 111.763 155.585 116.378L135.915 125.281C132.509 126.728 124.014 128.294 117.272 122.982L31.209 63.4727C28.6552 61.5146 25.3352 56.73 32.4859 53.2565C32.4859 49.7659 29.5234 42.0187 17.6738 38.9538L54.7038 22.3525L75.1342 19.2876Z" fill="#E9877C"/>
<path d="M37.113 60.7382C35.2803 59.34 35.6437 56.4831 37.768 55.5881L91.3959 32.9936C92.3939 32.5731 93.5409 32.7231 94.3971 33.3861L132.595 62.9616L105.269 77.0089L72.8362 87.9914L37.113 60.7382Z" fill="#6B0D2F"/>
<path d="M40.147 57.5347L93.0105 36.6548L119.825 57.5346L69.2602 79.8182L40.147 57.5347Z" fill="white"/>
<g clip-path="url(#clip0)">
<path d="M90.8578 52.5119L91.2865 53.2633C92.2901 55.0253 92.6974 57.0645 92.4476 59.0768C92.1978 61.0892 91.3042 62.9668 89.9002 64.4298C88.4961 65.8927 86.6568 66.8626 84.6566 67.1947C82.6564 67.5268 80.6024 67.2034 78.801 66.2726C76.9996 65.3419 75.5473 63.8538 74.6607 62.0301C73.7741 60.2065 73.5006 58.145 73.8812 56.1533C74.2617 54.1615 75.2759 52.3461 76.7723 50.9779C78.2688 49.6096 80.1674 48.7618 82.185 48.5609" stroke="#0EA353" stroke-width="3" stroke-linecap="round" stroke-linejoin="round"/>
<path d="M87.5592 46.7288L84.0557 59.5644L80.2079 58.5119" stroke="#0EA353" stroke-width="3" stroke-linecap="round" stroke-linejoin="round"/>
</g>
<path d="M35.946 74.7102L104.911 121.744L104.911 131.921L32.2302 89.5242L35.946 74.7102Z" fill="#851432"/>
<path d="M32.2302 89.5242L35.946 74.7102C34.129 73.4709 32.5447 72.6057 31.1931 72.036C27.2369 70.3684 24.0413 74.4383 25.1146 78.5956C26.2657 83.0545 29.5244 87.6635 32.2302 89.5242Z" fill="#851432"/>
<path d="M104.911 121.744L104.911 131.921C106.667 132.534 107.482 129.112 107.567 127.579C107.771 123.901 105.881 122.327 104.911 121.744Z" fill="#851432"/>
<rect width="14.8122" height="6.12965" rx="3.06483" transform="matrix(0.939681 -0.342051 0.34199 0.939704 83.0552 88.0288)" fill="#C2C2C2"/>
<rect width="14.8124" height="6.12958" rx="3.06479" transform="matrix(0.874599 -0.484847 0.484772 0.87464 103.53 81.1133)" fill="#C2C2C2"/>
<rect width="14.8125" height="6.12953" rx="3.06476" transform="matrix(0.829011 -0.559232 0.559154 0.829064 120.341 72.7656)" fill="#C2C2C2"/>
<rect width="14.8125" height="6.12953" rx="3.06476" transform="matrix(0.829011 -0.559232 0.559154 0.829064 128.822 78.8027)" fill="#C2C2C2"/>
<rect width="14.8125" height="6.12953" rx="3.06476" transform="matrix(0.829011 -0.559232 0.559154 0.829064 137.349 85.8896)" fill="#C2C2C2"/>
<rect width="14.8125" height="6.12953" rx="3.06476" transform="matrix(0.829011 -0.559232 0.559154 0.829064 145.191 92.043)" fill="#C2C2C2"/>
<rect width="14.8124" height="6.12958" rx="3.06479" transform="matrix(0.874599 -0.484847 0.484772 0.87464 126.938 100.457)" fill="#C2C2C2"/>
<rect width="14.8122" height="6.12965" rx="3.06483" transform="matrix(0.939682 -0.342051 0.34199 0.939704 107.575 106.058)" fill="#C2C2C2"/>
<rect width="14.8122" height="6.12965" rx="3.06483" transform="matrix(0.939682 -0.342051 0.34199 0.939704 98.8916 99.9277)" fill="#C2C2C2"/>
<rect width="14.8122" height="6.12965" rx="3.06483" transform="matrix(0.939682 -0.342051 0.34199 0.939704 91.231 94.3086)" fill="#C2C2C2"/>
<rect width="14.8124" height="6.12958" rx="3.06479" transform="matrix(0.874599 -0.484847 0.484772 0.87464 111.705 86.8818)" fill="#C2C2C2"/>
<rect width="14.8124" height="6.12958" rx="3.06479" transform="matrix(0.874599 -0.484847 0.484772 0.87464 119.367 93.522)" fill="#C2C2C2"/>
<rect width="14.8125" height="6.12953" rx="3.06476" transform="matrix(0.829011 -0.559232 0.559154 0.829064 150.797 99.2144)" fill="#D62632"/>
<rect width="14.8124" height="6.12958" rx="3.06479" transform="matrix(0.874599 -0.484847 0.484772 0.87464 134.02 107.836)" fill="#F9D000"/>
<path d="M36.3164 51.4687C35.4651 47.6376 31.4642 39.3625 22.2705 36.9106L28.9104 33.8457C33.3369 37.6768 41.0154 46.5649 36.3164 51.4687Z" fill="#6B0D2F"/>
<rect width="14.8122" height="6.12965" rx="3.06483" transform="matrix(0.939681 -0.342051 0.34199 0.939704 115.217 114.862)" fill="#0EA353"/>
<path d="M45.5102 0.643066C54.3634 0.728201 73.8573 7.23252 81.008 32.5687L36.3166 51.4687C34.5289 40.6565 24.8245 19.2366 0.308105 20.0539L45.5102 0.643066Z" fill="#EDEDED"/>
<defs>
<clipPath id="clip0">
<rect width="22.5667" height="22.5679" fill="white" transform="matrix(0.868584 -0.495541 0.495466 0.868627 67.728 53.7124)"/>
</clipPath>
</defs>
</svg>
