<svg width="20" height="20" viewBox="0 0 20 20" fill="none" xmlns="http://www.w3.org/2000/svg">
<path d="M15.0003 13.8889C15.0003 14.2818 14.8442 14.6586 14.5664 14.9365C14.2886 15.2143 13.9118 15.3704 13.5188 15.3704H4.62996L1.66699 18.3333V6.48148C1.66699 6.08857 1.82308 5.71175 2.10091 5.43392C2.37874 5.15608 2.75556 5 3.14847 5H13.5188C13.9118 5 14.2886 5.15608 14.5664 5.43392C14.8442 5.71175 15.0003 6.08857 15.0003 6.48148V13.8889Z" stroke="#1A1A1A" stroke-linecap="round" stroke-linejoin="round"/>
<path d="M4.99967 11.3889C4.99967 11.7818 5.15576 12.1586 5.43359 12.4365C5.71142 12.7143 6.08824 12.8704 6.48116 12.8704H15.37L18.333 15.8333V3.98148C18.333 3.58857 18.1769 3.21175 17.8991 2.93392C17.6213 2.65608 17.2444 2.5 16.8515 2.5H6.48116C6.08824 2.5 5.71142 2.65608 5.43359 2.93392C5.15576 3.21175 4.99967 3.58857 4.99967 3.98148V11.3889Z" fill="#1A1A1A" stroke="white" stroke-linecap="round" stroke-linejoin="round"/>
<path d="M12 5L12.449 6.38197H13.9021L12.7265 7.23607L13.1756 8.61803L12 7.76393L10.8244 8.61803L11.2735 7.23607L10.0979 6.38197H11.551L12 5Z" fill="white"/>
<path d="M15.5 6L15.8368 7.03647H16.9266L16.0449 7.67705L16.3817 8.71353L15.5 8.07295L14.6183 8.71353L14.9551 7.67705L14.0734 7.03647H15.1632L15.5 6Z" fill="white"/>
<path d="M8.5 6L8.83677 7.03647H9.92658L9.04491 7.67705L9.38168 8.71353L8.5 8.07295L7.61832 8.71353L7.95509 7.67705L7.07342 7.03647H8.16323L8.5 6Z" fill="white"/>
</svg>
