<svg width="25" height="25" viewBox="0 0 25 25" fill="none" xmlns="http://www.w3.org/2000/svg">
<path d="M6.5 2.5L3.5 6.5V20.5C3.5 21.0304 3.71071 21.5391 4.08579 21.9142C4.46086 22.2893 4.96957 22.5 5.5 22.5H19.5C20.0304 22.5 20.5391 22.2893 20.9142 21.9142C21.2893 21.5391 21.5 21.0304 21.5 20.5V6.5L18.5 2.5H6.5Z" fill="#B92835" stroke="#B92835" stroke-width="2" stroke-linecap="round" stroke-linejoin="round"/>
<path d="M3.5 6.5H21.5" stroke="white" stroke-width="2" stroke-linecap="round" stroke-linejoin="round"/>
<path d="M16.5 10.5C16.5 11.5609 16.0786 12.5783 15.3284 13.3284C14.5783 14.0786 13.5609 14.5 12.5 14.5C11.4391 14.5 10.4217 14.0786 9.67157 13.3284C8.92143 12.5783 8.5 11.5609 8.5 10.5" stroke="white" stroke-width="2" stroke-linecap="round" stroke-linejoin="round"/>
</svg>
