<svg width="5" height="35" viewBox="0 0 5 35" fill="none" xmlns="http://www.w3.org/2000/svg">
<path d="M5 2.5C5 3.88071 3.88071 5 2.5 5C1.11929 5 0 3.88071 0 2.5C0 1.11929 1.11929 0 2.5 0C3.88071 0 5 1.11929 5 2.5Z" fill="#C2C2C2"/>
<path d="M5 12.5C5 13.8807 3.88071 15 2.5 15C1.11929 15 0 13.8807 0 12.5C0 11.1193 1.11929 10 2.5 10C3.88071 10 5 11.1193 5 12.5Z" fill="#C2C2C2"/>
<path d="M5 22.5C5 23.8807 3.88071 25 2.5 25C1.11929 25 0 23.8807 0 22.5C0 21.1193 1.11929 20 2.5 20C3.88071 20 5 21.1193 5 22.5Z" fill="#C2C2C2"/>
<path d="M5 32.5C5 33.8807 3.88071 35 2.5 35C1.11929 35 0 33.8807 0 32.5C0 31.1193 1.11929 30 2.5 30C3.88071 30 5 31.1193 5 32.5Z" fill="#C2C2C2"/>
</svg>
