<svg width="152" height="26" viewBox="0 0 152 26" fill="none" xmlns="http://www.w3.org/2000/svg">
<rect width="152" height="26" rx="13" fill="#B92835"/>
<path d="M17.5 19.25C20.9518 19.25 23.75 16.4518 23.75 13C23.75 9.54822 20.9518 6.75 17.5 6.75C14.0482 6.75 11.25 9.54822 11.25 13C11.25 16.4518 14.0482 19.25 17.5 19.25Z" stroke="white" stroke-width="1.5" stroke-linecap="round" stroke-linejoin="round"/>
<path d="M17.5 9.25V13L20 14.25" stroke="white" stroke-width="1.5" stroke-linecap="round" stroke-linejoin="round"/>
<path d="M33.756 17.084C33.492 17.084 33.304 16.932 33.192 16.628L30.54 9.056C30.484 8.88 30.496 8.736 30.576 8.624C30.656 8.512 30.792 8.456 30.984 8.456C31.24 8.456 31.416 8.596 31.512 8.876L33.78 15.56L36.108 8.912C36.212 8.608 36.388 8.456 36.636 8.456C36.764 8.456 36.864 8.496 36.936 8.576C37.016 8.648 37.084 8.76 37.14 8.912L39.444 15.62L41.772 8.876C41.86 8.596 42.032 8.456 42.288 8.456C42.456 8.456 42.576 8.512 42.648 8.624C42.728 8.736 42.74 8.88 42.684 9.056L40.02 16.628C39.964 16.78 39.892 16.896 39.804 16.976C39.724 17.048 39.608 17.084 39.456 17.084C39.312 17.084 39.196 17.048 39.108 16.976C39.02 16.896 38.948 16.78 38.892 16.628L36.612 10.04L34.308 16.628C34.252 16.78 34.184 16.896 34.104 16.976C34.024 17.048 33.908 17.084 33.756 17.084ZM45.2753 17.108C44.8753 17.108 44.5153 17.032 44.1953 16.88C43.8833 16.72 43.6353 16.504 43.4513 16.232C43.2673 15.96 43.1753 15.656 43.1753 15.32C43.1753 14.896 43.2833 14.56 43.4993 14.312C43.7233 14.064 44.0873 13.888 44.5913 13.784C45.1033 13.672 45.7993 13.616 46.6793 13.616H47.0633V13.244C47.0633 12.748 46.9593 12.392 46.7513 12.176C46.5513 11.952 46.2273 11.84 45.7793 11.84C45.4993 11.84 45.2153 11.876 44.9273 11.948C44.6473 12.02 44.3553 12.136 44.0513 12.296C43.9153 12.368 43.7993 12.384 43.7033 12.344C43.6153 12.296 43.5513 12.224 43.5113 12.128C43.4793 12.024 43.4793 11.92 43.5113 11.816C43.5513 11.704 43.6313 11.62 43.7513 11.564C44.0953 11.388 44.4393 11.26 44.7833 11.18C45.1353 11.1 45.4673 11.06 45.7793 11.06C46.5313 11.06 47.0873 11.244 47.4473 11.612C47.8153 11.98 47.9993 12.552 47.9993 13.328V16.58C47.9993 16.916 47.8513 17.084 47.5553 17.084C47.2433 17.084 47.0873 16.916 47.0873 16.58V15.992C46.9353 16.336 46.6993 16.608 46.3793 16.808C46.0673 17.008 45.6993 17.108 45.2753 17.108ZM45.4313 16.376C45.9113 16.376 46.3033 16.212 46.6073 15.884C46.9113 15.548 47.0633 15.124 47.0633 14.612V14.252H46.6913C46.0433 14.252 45.5313 14.284 45.1553 14.348C44.7873 14.404 44.5273 14.508 44.3753 14.66C44.2313 14.804 44.1593 15.004 44.1593 15.26C44.1593 15.588 44.2713 15.856 44.4953 16.064C44.7273 16.272 45.0393 16.376 45.4313 16.376ZM50.2826 9.764C49.8586 9.764 49.6466 9.564 49.6466 9.164C49.6466 8.772 49.8586 8.576 50.2826 8.576C50.7066 8.576 50.9186 8.772 50.9186 9.164C50.9186 9.564 50.7066 9.764 50.2826 9.764ZM50.2826 17.06C49.9626 17.06 49.8026 16.884 49.8026 16.532V11.624C49.8026 11.28 49.9626 11.108 50.2826 11.108C50.6106 11.108 50.7746 11.28 50.7746 11.624V16.532C50.7746 16.884 50.6106 17.06 50.2826 17.06ZM54.9317 17.108C54.2437 17.108 53.7277 16.928 53.3837 16.568C53.0397 16.2 52.8677 15.672 52.8677 14.984V11.924H52.0637C51.7837 11.924 51.6437 11.796 51.6437 11.54C51.6437 11.292 51.7837 11.168 52.0637 11.168H52.8677V9.788C52.8677 9.46 53.0317 9.296 53.3597 9.296C53.6797 9.296 53.8397 9.46 53.8397 9.788V11.168H55.3517C55.6317 11.168 55.7717 11.292 55.7717 11.54C55.7717 11.796 55.6317 11.924 55.3517 11.924H53.8397V14.888C53.8397 15.344 53.9357 15.692 54.1277 15.932C54.3197 16.164 54.6317 16.28 55.0637 16.28C55.2157 16.28 55.3437 16.264 55.4477 16.232C55.5517 16.2 55.6437 16.184 55.7237 16.184C55.7957 16.176 55.8557 16.2 55.9037 16.256C55.9517 16.312 55.9757 16.408 55.9757 16.544C55.9757 16.64 55.9557 16.728 55.9157 16.808C55.8837 16.888 55.8237 16.944 55.7357 16.976C55.6397 17.008 55.5117 17.036 55.3517 17.06C55.1997 17.092 55.0597 17.108 54.9317 17.108ZM57.3373 9.764C56.9133 9.764 56.7013 9.564 56.7013 9.164C56.7013 8.772 56.9133 8.576 57.3373 8.576C57.7613 8.576 57.9733 8.772 57.9733 9.164C57.9733 9.564 57.7613 9.764 57.3373 9.764ZM57.3373 17.06C57.0173 17.06 56.8573 16.884 56.8573 16.532V11.624C56.8573 11.28 57.0173 11.108 57.3373 11.108C57.6653 11.108 57.8293 11.28 57.8293 11.624V16.532C57.8293 16.884 57.6653 17.06 57.3373 17.06ZM60.1264 17.084C59.8064 17.084 59.6464 16.916 59.6464 16.58V11.576C59.6464 11.248 59.8024 11.084 60.1144 11.084C60.4344 11.084 60.5944 11.248 60.5944 11.576V12.164C60.7864 11.796 61.0584 11.52 61.4104 11.336C61.7624 11.152 62.1584 11.06 62.5984 11.06C63.9824 11.06 64.6744 11.828 64.6744 13.364V16.58C64.6744 16.916 64.5144 17.084 64.1944 17.084C63.8664 17.084 63.7024 16.916 63.7024 16.58V13.424C63.7024 12.88 63.5944 12.484 63.3784 12.236C63.1704 11.98 62.8344 11.852 62.3704 11.852C61.8344 11.852 61.4064 12.02 61.0864 12.356C60.7744 12.684 60.6184 13.124 60.6184 13.676V16.58C60.6184 16.916 60.4544 17.084 60.1264 17.084ZM69.0467 19.268C68.6227 19.268 68.2067 19.216 67.7987 19.112C67.3987 19.016 67.0347 18.86 66.7067 18.644C66.5867 18.572 66.5147 18.484 66.4907 18.38C66.4747 18.284 66.4907 18.188 66.5387 18.092C66.5867 18.004 66.6547 17.94 66.7427 17.9C66.8387 17.86 66.9387 17.868 67.0427 17.924C67.3947 18.14 67.7307 18.288 68.0507 18.368C68.3707 18.448 68.6867 18.488 68.9987 18.488C70.1507 18.488 70.7267 17.896 70.7267 16.712V15.68C70.5587 16.048 70.2947 16.34 69.9347 16.556C69.5827 16.764 69.1787 16.868 68.7227 16.868C68.1867 16.868 67.7227 16.744 67.3307 16.496C66.9387 16.248 66.6347 15.908 66.4187 15.476C66.2107 15.036 66.1067 14.528 66.1067 13.952C66.1067 13.376 66.2107 12.872 66.4187 12.44C66.6347 12 66.9387 11.66 67.3307 11.42C67.7227 11.18 68.1867 11.06 68.7227 11.06C69.1787 11.06 69.5827 11.16 69.9347 11.36C70.2867 11.56 70.5467 11.84 70.7147 12.2V11.576C70.7147 11.248 70.8747 11.084 71.1947 11.084C71.5147 11.084 71.6747 11.248 71.6747 11.576V16.58C71.6747 17.476 71.4507 18.148 71.0027 18.596C70.5627 19.044 69.9107 19.268 69.0467 19.268ZM68.9027 16.076C69.4627 16.076 69.9067 15.884 70.2347 15.5C70.5627 15.116 70.7267 14.6 70.7267 13.952C70.7267 13.304 70.5627 12.792 70.2347 12.416C69.9067 12.032 69.4627 11.84 68.9027 11.84C68.3507 11.84 67.9107 12.032 67.5827 12.416C67.2547 12.792 67.0907 13.304 67.0907 13.952C67.0907 14.6 67.2547 15.116 67.5827 15.5C67.9107 15.884 68.3507 16.076 68.9027 16.076ZM77.3837 17.084C77.0637 17.084 76.9037 16.916 76.9037 16.58V11.924H76.1357C75.8557 11.924 75.7157 11.796 75.7157 11.54C75.7157 11.292 75.8557 11.168 76.1357 11.168H76.9037V10.964C76.9037 9.468 77.6357 8.656 79.0997 8.528L79.4477 8.492C79.5917 8.484 79.6957 8.516 79.7597 8.588C79.8237 8.66 79.8557 8.748 79.8557 8.852C79.8637 8.948 79.8397 9.036 79.7837 9.116C79.7277 9.196 79.6477 9.24 79.5437 9.248L79.2677 9.272C78.7797 9.312 78.4237 9.46 78.1997 9.716C77.9837 9.972 77.8757 10.348 77.8757 10.844V11.168H79.1717C79.4517 11.168 79.5917 11.292 79.5917 11.54C79.5917 11.796 79.4517 11.924 79.1717 11.924H77.8757V16.58C77.8757 16.916 77.7117 17.084 77.3837 17.084ZM82.8477 17.108C82.2797 17.108 81.7877 16.984 81.3717 16.736C80.9557 16.488 80.6317 16.14 80.3997 15.692C80.1757 15.236 80.0637 14.7 80.0637 14.084C80.0637 13.468 80.1757 12.936 80.3997 12.488C80.6317 12.032 80.9557 11.68 81.3717 11.432C81.7877 11.184 82.2797 11.06 82.8477 11.06C83.4077 11.06 83.8957 11.184 84.3117 11.432C84.7357 11.68 85.0597 12.032 85.2837 12.488C85.5157 12.936 85.6317 13.468 85.6317 14.084C85.6317 14.7 85.5157 15.236 85.2837 15.692C85.0597 16.14 84.7357 16.488 84.3117 16.736C83.8957 16.984 83.4077 17.108 82.8477 17.108ZM82.8477 16.328C83.3917 16.328 83.8277 16.136 84.1557 15.752C84.4837 15.36 84.6477 14.804 84.6477 14.084C84.6477 13.356 84.4837 12.8 84.1557 12.416C83.8277 12.032 83.3917 11.84 82.8477 11.84C82.2957 11.84 81.8557 12.032 81.5277 12.416C81.2077 12.8 81.0477 13.356 81.0477 14.084C81.0477 14.804 81.2077 15.36 81.5277 15.752C81.8557 16.136 82.2957 16.328 82.8477 16.328ZM87.5837 17.084C87.2557 17.084 87.0917 16.916 87.0917 16.58V11.576C87.0917 11.248 87.2477 11.084 87.5597 11.084C87.8797 11.084 88.0397 11.248 88.0397 11.576V12.212C88.1997 11.844 88.4477 11.564 88.7837 11.372C89.1197 11.172 89.5197 11.064 89.9837 11.048C90.2397 11.024 90.3757 11.152 90.3917 11.432C90.4157 11.712 90.2717 11.868 89.9597 11.9L89.7677 11.924C89.2157 11.972 88.7957 12.148 88.5077 12.452C88.2197 12.748 88.0757 13.156 88.0757 13.676V16.58C88.0757 16.916 87.9117 17.084 87.5837 17.084ZM95.1102 17.084C94.7822 17.084 94.6182 16.912 94.6182 16.568V9.044C94.6182 8.708 94.7862 8.54 95.1222 8.54H97.9662C98.8782 8.54 99.5742 8.76 100.054 9.2C100.542 9.64 100.786 10.268 100.786 11.084C100.786 11.892 100.542 12.52 100.054 12.968C99.5742 13.408 98.8782 13.628 97.9662 13.628H95.6022V16.568C95.6022 16.912 95.4382 17.084 95.1102 17.084ZM95.6022 12.8H97.8462C99.1582 12.8 99.8142 12.228 99.8142 11.084C99.8142 9.932 99.1582 9.356 97.8462 9.356H95.6022V12.8ZM103.623 17.108C103.223 17.108 102.863 17.032 102.543 16.88C102.231 16.72 101.983 16.504 101.799 16.232C101.615 15.96 101.523 15.656 101.523 15.32C101.523 14.896 101.631 14.56 101.847 14.312C102.071 14.064 102.435 13.888 102.939 13.784C103.451 13.672 104.147 13.616 105.027 13.616H105.411V13.244C105.411 12.748 105.307 12.392 105.099 12.176C104.899 11.952 104.575 11.84 104.127 11.84C103.847 11.84 103.563 11.876 103.275 11.948C102.995 12.02 102.703 12.136 102.399 12.296C102.263 12.368 102.147 12.384 102.051 12.344C101.963 12.296 101.899 12.224 101.859 12.128C101.827 12.024 101.827 11.92 101.859 11.816C101.899 11.704 101.979 11.62 102.099 11.564C102.443 11.388 102.787 11.26 103.131 11.18C103.483 11.1 103.815 11.06 104.127 11.06C104.879 11.06 105.435 11.244 105.795 11.612C106.163 11.98 106.347 12.552 106.347 13.328V16.58C106.347 16.916 106.199 17.084 105.903 17.084C105.591 17.084 105.435 16.916 105.435 16.58V15.992C105.283 16.336 105.047 16.608 104.727 16.808C104.415 17.008 104.047 17.108 103.623 17.108ZM103.779 16.376C104.259 16.376 104.651 16.212 104.955 15.884C105.259 15.548 105.411 15.124 105.411 14.612V14.252H105.039C104.391 14.252 103.879 14.284 103.503 14.348C103.135 14.404 102.875 14.508 102.723 14.66C102.579 14.804 102.507 15.004 102.507 15.26C102.507 15.588 102.619 15.856 102.843 16.064C103.075 16.272 103.387 16.376 103.779 16.376ZM109.388 19.244C109.204 19.244 109.08 19.172 109.016 19.028C108.952 18.892 108.956 18.736 109.028 18.56L109.76 16.904L107.552 11.768C107.472 11.584 107.468 11.424 107.54 11.288C107.62 11.152 107.768 11.084 107.984 11.084C108.208 11.084 108.372 11.212 108.476 11.468L110.288 15.896L112.112 11.468C112.176 11.324 112.244 11.224 112.316 11.168C112.388 11.112 112.492 11.084 112.628 11.084C112.812 11.084 112.936 11.152 113 11.288C113.064 11.424 113.06 11.58 112.988 11.756L109.916 18.86C109.852 19.004 109.78 19.104 109.7 19.16C109.628 19.216 109.524 19.244 109.388 19.244ZM114.76 17.084C114.44 17.084 114.28 16.916 114.28 16.58V11.576C114.28 11.248 114.436 11.084 114.748 11.084C115.068 11.084 115.228 11.248 115.228 11.576V12.152C115.404 11.8 115.648 11.532 115.96 11.348C116.272 11.156 116.636 11.06 117.052 11.06C117.964 11.06 118.548 11.456 118.804 12.248C118.98 11.88 119.24 11.592 119.584 11.384C119.928 11.168 120.324 11.06 120.772 11.06C122.068 11.06 122.716 11.828 122.716 13.364V16.58C122.716 16.916 122.552 17.084 122.224 17.084C121.904 17.084 121.744 16.916 121.744 16.58V13.412C121.744 12.876 121.648 12.484 121.456 12.236C121.272 11.98 120.964 11.852 120.532 11.852C120.06 11.852 119.684 12.02 119.404 12.356C119.124 12.692 118.984 13.14 118.984 13.7V16.58C118.984 16.916 118.82 17.084 118.492 17.084C118.172 17.084 118.012 16.916 118.012 16.58V13.412C118.012 12.876 117.916 12.484 117.724 12.236C117.54 11.98 117.232 11.852 116.8 11.852C116.32 11.852 115.94 12.02 115.66 12.356C115.388 12.692 115.252 13.14 115.252 13.7V16.58C115.252 16.916 115.088 17.084 114.76 17.084ZM127.161 17.108C126.241 17.108 125.513 16.84 124.977 16.304C124.441 15.76 124.173 15.024 124.173 14.096C124.173 13.496 124.293 12.968 124.533 12.512C124.773 12.048 125.101 11.692 125.517 11.444C125.941 11.188 126.429 11.06 126.981 11.06C127.773 11.06 128.393 11.316 128.841 11.828C129.289 12.332 129.513 13.028 129.513 13.916C129.513 14.164 129.373 14.288 129.093 14.288H125.121C125.153 14.952 125.345 15.46 125.697 15.812C126.049 16.156 126.537 16.328 127.161 16.328C127.425 16.328 127.693 16.296 127.965 16.232C128.237 16.16 128.501 16.036 128.757 15.86C128.941 15.74 129.093 15.716 129.213 15.788C129.341 15.86 129.405 15.972 129.405 16.124C129.413 16.268 129.333 16.396 129.165 16.508C128.901 16.7 128.585 16.848 128.217 16.952C127.857 17.056 127.505 17.108 127.161 17.108ZM127.005 11.78C126.453 11.78 126.017 11.952 125.697 12.296C125.377 12.64 125.189 13.092 125.133 13.652H128.673C128.649 13.06 128.493 12.6 128.205 12.272C127.925 11.944 127.525 11.78 127.005 11.78ZM131.4 17.084C131.08 17.084 130.92 16.916 130.92 16.58V11.576C130.92 11.248 131.076 11.084 131.388 11.084C131.708 11.084 131.868 11.248 131.868 11.576V12.164C132.06 11.796 132.332 11.52 132.684 11.336C133.036 11.152 133.432 11.06 133.872 11.06C135.256 11.06 135.948 11.828 135.948 13.364V16.58C135.948 16.916 135.788 17.084 135.468 17.084C135.14 17.084 134.976 16.916 134.976 16.58V13.424C134.976 12.88 134.868 12.484 134.652 12.236C134.444 11.98 134.108 11.852 133.644 11.852C133.108 11.852 132.68 12.02 132.36 12.356C132.048 12.684 131.892 13.124 131.892 13.676V16.58C131.892 16.916 131.728 17.084 131.4 17.084ZM140.08 17.108C139.392 17.108 138.876 16.928 138.532 16.568C138.188 16.2 138.016 15.672 138.016 14.984V11.924H137.212C136.932 11.924 136.792 11.796 136.792 11.54C136.792 11.292 136.932 11.168 137.212 11.168H138.016V9.788C138.016 9.46 138.18 9.296 138.508 9.296C138.828 9.296 138.988 9.46 138.988 9.788V11.168H140.5C140.78 11.168 140.92 11.292 140.92 11.54C140.92 11.796 140.78 11.924 140.5 11.924H138.988V14.888C138.988 15.344 139.084 15.692 139.276 15.932C139.468 16.164 139.78 16.28 140.212 16.28C140.364 16.28 140.492 16.264 140.596 16.232C140.7 16.2 140.792 16.184 140.872 16.184C140.944 16.176 141.004 16.2 141.052 16.256C141.1 16.312 141.124 16.408 141.124 16.544C141.124 16.64 141.104 16.728 141.064 16.808C141.032 16.888 140.972 16.944 140.884 16.976C140.788 17.008 140.66 17.036 140.5 17.06C140.348 17.092 140.208 17.108 140.08 17.108Z" fill="white"/>
</svg>
