<svg width="54" height="54" viewBox="0 0 54 54" fill="none" xmlns="http://www.w3.org/2000/svg">
<g filter="url(#filter0_d)">
<circle cx="30" cy="27" r="23" fill="#5BD066"/>
</g>
<path fill-rule="evenodd" clip-rule="evenodd" d="M30 41.0625C37.2487 41.0625 43.125 35.1862 43.125 27.9375C43.125 20.6888 37.2487 14.8125 30 14.8125C22.7513 14.8125 16.875 20.6888 16.875 27.9375C16.875 30.2914 17.4947 32.5007 18.5798 34.4109L16.875 41.0625L23.7327 39.4723C25.595 40.4863 27.7302 41.0625 30 41.0625ZM30 39.0433C36.1335 39.0433 41.1058 34.071 41.1058 27.9375C41.1058 21.804 36.1335 16.8317 30 16.8317C23.8665 16.8317 18.8942 21.804 18.8942 27.9375C18.8942 30.3057 19.6355 32.5007 20.8986 34.3033L19.9038 38.0337L23.6999 37.0846C25.49 38.3199 27.6605 39.0433 30 39.0433Z" fill="#BFC8D0"/>
<path d="M41.25 27C41.25 33.2132 36.2132 38.25 30 38.25C27.6302 38.25 25.4315 37.5172 23.6181 36.2659L19.7727 37.2273L20.7804 33.4485C19.5009 31.6225 18.75 29.3989 18.75 27C18.75 20.7868 23.7868 15.75 30 15.75C36.2132 15.75 41.25 20.7868 41.25 27Z" fill="url(#paint0_linear)"/>
<path fill-rule="evenodd" clip-rule="evenodd" d="M30 40.125C37.2487 40.125 43.125 34.2487 43.125 27C43.125 19.7513 37.2487 13.875 30 13.875C22.7513 13.875 16.875 19.7513 16.875 27C16.875 29.3539 17.4947 31.5632 18.5798 33.4734L16.875 40.125L23.7327 38.5348C25.595 39.5488 27.7302 40.125 30 40.125ZM30 38.1058C36.1335 38.1058 41.1058 33.1335 41.1058 27C41.1058 20.8665 36.1335 15.8942 30 15.8942C23.8665 15.8942 18.8942 20.8665 18.8942 27C18.8942 29.3682 19.6355 31.5632 20.8986 33.3658L19.9038 37.0962L23.6999 36.1471C25.49 37.3824 27.6605 38.1058 30 38.1058Z" fill="white"/>
<path d="M26.7188 20.9063C26.4067 20.2795 25.928 20.335 25.4444 20.335C24.5801 20.335 23.2324 21.3702 23.2324 23.297C23.2324 24.876 23.9282 26.6045 26.2729 29.1902C28.5357 31.6856 31.5088 32.9765 33.9771 32.9326C36.4453 32.8886 36.9531 30.7646 36.9531 30.0473C36.9531 29.7294 36.7559 29.5707 36.6199 29.5276C35.7788 29.124 34.2275 28.3718 33.8745 28.2305C33.5215 28.0892 33.3372 28.2803 33.2227 28.3843C32.9026 28.6894 32.268 29.5884 32.0508 29.7906C31.8335 29.9928 31.5096 29.8904 31.3748 29.814C30.8788 29.615 29.534 29.0168 28.462 27.9776C27.1362 26.6924 27.0584 26.2503 26.8087 25.8567C26.6088 25.5418 26.7555 25.3486 26.8286 25.2642C27.1143 24.9346 27.5087 24.4257 27.6856 24.1729C27.8624 23.92 27.722 23.5361 27.6378 23.297C27.2754 22.2686 26.9684 21.4077 26.7188 20.9063Z" fill="white"/>
<defs>
<filter id="filter0_d" x="0" y="0" width="54" height="54" filterUnits="userSpaceOnUse" color-interpolation-filters="sRGB">
<feFlood flood-opacity="0" result="BackgroundImageFix"/>
<feColorMatrix in="SourceAlpha" type="matrix" values="0 0 0 0 0 0 0 0 0 0 0 0 0 0 0 0 0 0 127 0" result="hardAlpha"/>
<feOffset dx="-3"/>
<feGaussianBlur stdDeviation="2"/>
<feColorMatrix type="matrix" values="0 0 0 0 0 0 0 0 0 0 0 0 0 0 0 0 0 0 0.25 0"/>
<feBlend mode="normal" in2="BackgroundImageFix" result="effect1_dropShadow"/>
<feBlend mode="normal" in="SourceGraphic" in2="effect1_dropShadow" result="shape"/>
</filter>
<linearGradient id="paint0_linear" x1="39.8437" y1="18.5625" x2="18.75" y2="38.25" gradientUnits="userSpaceOnUse">
<stop stop-color="#5BD066"/>
<stop offset="1" stop-color="#27B43E"/>
</linearGradient>
</defs>
</svg>
