<svg width="105" height="36" viewBox="0 0 105 36" fill="none" xmlns="http://www.w3.org/2000/svg">
<path d="M32 26H41" stroke="#0A0A0A" stroke-width="2" stroke-linecap="round" stroke-linejoin="round"/>
<path d="M36.5 9.50023C36.8978 9.1024 37.4374 8.87891 38 8.87891C38.2786 8.87891 38.5544 8.93378 38.8118 9.04038C39.0692 9.14699 39.303 9.30324 39.5 9.50023C39.697 9.69721 39.8532 9.93106 39.9598 10.1884C40.0665 10.4458 40.1213 10.7217 40.1213 11.0002C40.1213 11.2788 40.0665 11.5547 39.9598 11.812C39.8532 12.0694 39.697 12.3032 39.5 12.5002L27 25.0002L23 26.0002L24 22.0002L36.5 9.50023Z" stroke="#0A0A0A" stroke-width="2" stroke-linecap="round" stroke-linejoin="round"/>
<path d="M60.7168 22.1592L62.8975 14.0996C62.9066 14.0723 62.9134 14.0472 62.918 14.0244C62.9225 13.9971 62.9248 13.972 62.9248 13.9492C62.9248 13.9264 62.9248 13.9036 62.9248 13.8809C62.9248 13.6758 62.8473 13.5117 62.6924 13.3887C62.542 13.2656 62.3665 13.2041 62.166 13.2041C62.002 13.2041 61.8538 13.2497 61.7217 13.3408C61.5895 13.4274 61.5029 13.555 61.4619 13.7236L59.4932 21.4824L57.1621 14.0312C57.0618 13.7077 56.9297 13.4889 56.7656 13.375C56.6016 13.2611 56.3919 13.2041 56.1367 13.2041C55.8861 13.2041 55.6764 13.2633 55.5078 13.3818C55.3438 13.5003 55.2116 13.7168 55.1113 14.0312L52.7803 21.4824L50.8115 13.7236C50.7933 13.6553 50.766 13.5915 50.7295 13.5322C50.6976 13.473 50.6589 13.4251 50.6133 13.3887C50.5677 13.3477 50.5176 13.3135 50.4629 13.2861C50.4082 13.2588 50.3512 13.2383 50.292 13.2246C50.2327 13.2109 50.1712 13.2041 50.1074 13.2041C49.9798 13.2041 49.859 13.2292 49.7451 13.2793C49.6312 13.3294 49.5355 13.4092 49.458 13.5186C49.3851 13.6234 49.3486 13.7441 49.3486 13.8809C49.3486 13.9492 49.3577 14.0221 49.376 14.0996L51.5566 22.1592C51.6296 22.4326 51.7708 22.6445 51.9805 22.7949C52.1901 22.9408 52.4225 23.0137 52.6777 23.0137C52.9375 23.0137 53.1768 22.9408 53.3955 22.7949C53.6143 22.6491 53.7646 22.4417 53.8467 22.1729L56.1367 14.9678L58.4268 22.1729C58.5133 22.4417 58.6615 22.6491 58.8711 22.7949C59.0853 22.9408 59.3223 23.0137 59.582 23.0137C59.8418 23.0137 60.0765 22.9408 60.2861 22.7949C60.5003 22.6445 60.6439 22.4326 60.7168 22.1592ZM65.0166 23C65.2035 23 65.3675 22.943 65.5088 22.8291C65.6501 22.7152 65.7207 22.5557 65.7207 22.3506V19.0078C65.7207 18.429 65.8916 17.9984 66.2334 17.7158C66.5798 17.4333 67.056 17.292 67.6621 17.292C67.8125 17.292 67.9287 17.2373 68.0107 17.1279C68.0928 17.0186 68.1338 16.8887 68.1338 16.7383C68.1338 16.5742 68.0882 16.4329 67.9971 16.3145C67.9059 16.196 67.7783 16.1367 67.6143 16.1367C67.154 16.1367 66.7484 16.2803 66.3975 16.5674C66.0511 16.8545 65.821 17.21 65.707 17.6338L65.7207 16.793C65.7207 16.7155 65.707 16.6449 65.6797 16.5811C65.6569 16.5127 65.6227 16.4557 65.5771 16.4102C65.5361 16.3646 65.486 16.3258 65.4268 16.2939C65.3721 16.2575 65.3105 16.2324 65.2422 16.2188C65.1784 16.2005 65.11 16.1914 65.0371 16.1914C64.8503 16.1914 64.6862 16.2484 64.5449 16.3623C64.4082 16.4717 64.3398 16.6266 64.3398 16.8271V22.3506C64.3398 22.5602 64.4059 22.722 64.5381 22.8359C64.6702 22.9453 64.8298 23 65.0166 23ZM70.1299 23C70.3167 23 70.4785 22.9385 70.6152 22.8154C70.7565 22.6924 70.8271 22.5238 70.8271 22.3096V16.875C70.8271 16.6608 70.7588 16.4922 70.6221 16.3691C70.4854 16.2461 70.3258 16.1846 70.1436 16.1846C69.9567 16.1846 69.7926 16.2461 69.6514 16.3691C69.5146 16.4922 69.4463 16.6608 69.4463 16.875V22.3096C69.4463 22.5329 69.5124 22.7038 69.6445 22.8223C69.7767 22.9408 69.9385 23 70.1299 23ZM70.1367 14.6875C70.3919 14.6875 70.597 14.6146 70.752 14.4688C70.9115 14.3184 70.9912 14.1224 70.9912 13.8809C70.9912 13.6393 70.9137 13.4434 70.7588 13.293C70.6038 13.1426 70.3988 13.0674 70.1436 13.0674C69.8838 13.0674 69.6742 13.1426 69.5146 13.293C69.3551 13.4434 69.2754 13.6393 69.2754 13.8809C69.2754 14.1224 69.3551 14.3184 69.5146 14.4688C69.6742 14.6146 69.8815 14.6875 70.1367 14.6875ZM75.0859 23.082C75.1042 23.082 75.1247 23.082 75.1475 23.082C75.1748 23.082 75.1976 23.082 75.2158 23.082C75.2386 23.082 75.2614 23.082 75.2842 23.082C75.307 23.082 75.3298 23.082 75.3525 23.082C75.3753 23.082 75.3958 23.082 75.4141 23.082C75.5143 23.082 75.6009 23.0798 75.6738 23.0752C75.7467 23.0752 75.8265 23.0706 75.9131 23.0615C76.0042 23.0524 76.0794 23.0387 76.1387 23.0205C76.1979 23.0068 76.2572 22.9863 76.3164 22.959C76.3802 22.9316 76.4303 22.8997 76.4668 22.8633C76.5033 22.8223 76.5329 22.7721 76.5557 22.7129C76.5785 22.6536 76.5898 22.5876 76.5898 22.5146C76.5898 22.3734 76.5397 22.2503 76.4395 22.1455C76.3438 22.0361 76.2116 21.9814 76.043 21.9814C76.0293 21.9814 76.0156 21.9814 76.002 21.9814L75.5166 22.0088C75.4938 22.0088 75.471 22.0088 75.4482 22.0088C75.1702 22.0088 74.9697 21.904 74.8467 21.6943C74.7236 21.4847 74.6621 21.1611 74.6621 20.7236V17.1484H75.8857C76.0498 17.1484 76.1729 17.1097 76.2549 17.0322C76.3369 16.9502 76.3779 16.8431 76.3779 16.7109C76.3779 16.5788 76.3369 16.4694 76.2549 16.3828C76.1729 16.2962 76.0498 16.2529 75.8857 16.2529H74.6621V14.2979C74.6621 14.1201 74.612 13.9857 74.5117 13.8945C74.416 13.8034 74.293 13.7578 74.1426 13.7578C73.9648 13.7578 73.8122 13.8148 73.6846 13.9287C73.5615 14.0426 73.4886 14.1862 73.4658 14.3594L73.2812 16.2529H72.4814C72.3174 16.2529 72.1921 16.2939 72.1055 16.376C72.0234 16.458 71.9824 16.5651 71.9824 16.6973C71.9824 16.8294 72.0257 16.9388 72.1123 17.0254C72.1989 17.1074 72.3242 17.1484 72.4883 17.1484H73.2812V21.0107C73.2812 21.6898 73.443 22.2048 73.7666 22.5557C74.0902 22.9066 74.5299 23.082 75.0859 23.082ZM80.9443 23.1094C81.9424 23.1094 82.7946 22.7972 83.501 22.1729C83.5739 22.1136 83.6263 22.0475 83.6582 21.9746C83.6947 21.9017 83.7129 21.8265 83.7129 21.749C83.7129 21.667 83.6924 21.5895 83.6514 21.5166C83.6149 21.4437 83.5625 21.3867 83.4941 21.3457C83.4303 21.3001 83.3597 21.2773 83.2822 21.2773C83.2367 21.2773 83.1911 21.2865 83.1455 21.3047C83.1045 21.3184 83.0612 21.3411 83.0156 21.373C82.6921 21.61 82.3753 21.7992 82.0654 21.9404C81.7555 22.0771 81.4137 22.1455 81.04 22.1455C80.4111 22.1364 79.903 21.9473 79.5156 21.5781C79.1283 21.209 78.9255 20.6462 78.9072 19.8896H83.4873C83.6331 19.8896 83.7425 19.8418 83.8154 19.7461C83.8883 19.6504 83.9248 19.5273 83.9248 19.377C83.9157 18.9212 83.8473 18.502 83.7197 18.1191C83.5967 17.7318 83.4144 17.3831 83.1729 17.0732C82.9359 16.7633 82.6146 16.5195 82.209 16.3418C81.8079 16.1641 81.3454 16.0752 80.8213 16.0752C80.3063 16.0752 79.8369 16.1709 79.4131 16.3623C78.9938 16.5492 78.6475 16.8044 78.374 17.1279C78.1006 17.4469 77.8887 17.8138 77.7383 18.2285C77.5924 18.6432 77.5195 19.083 77.5195 19.5479C77.5195 20.6416 77.8363 21.5075 78.4697 22.1455C79.1077 22.779 79.9326 23.1003 80.9443 23.1094ZM78.9209 19.0557C78.9437 18.7959 78.9984 18.5475 79.085 18.3105C79.1761 18.0736 79.2992 17.8571 79.4541 17.6611C79.6136 17.4606 79.8164 17.3034 80.0625 17.1895C80.3086 17.071 80.582 17.0117 80.8828 17.0117C81.4661 17.0117 81.9105 17.2054 82.2158 17.5928C82.5212 17.9756 82.6943 18.4632 82.7354 19.0557H78.9209Z" fill="#0A0A0A"/>
<rect x="0.5" y="0.5" width="104" height="35" rx="17.5" stroke="#0A0A0A"/>
</svg>
